<?xml version="1.0" encoding="UTF-8" standalone="no"?><!DOCTYPE svg PUBLIC "-//W3C//DTD SVG 1.1//EN" "http://www.w3.org/Graphics/SVG/1.1/DTD/svg11.dtd"><svg width="100%" height="100%" viewBox="0 0 232 268" version="1.1" xmlns="http://www.w3.org/2000/svg" xmlns:xlink="http://www.w3.org/1999/xlink" xml:space="preserve" xmlns:serif="http://www.serif.com/" style="fill-rule:evenodd;clip-rule:evenodd;stroke-linejoin:round;stroke-miterlimit:2;"><g><path d="M173.284,169.191c13.165,10.866 20.506,25.902 20.506,41.498c0,31.245 -32.807,57.299 -71.428,57.299c-38.256,0 -70.36,-26.578 -70.36,-57.563c0,-10.839 3.824,-21.652 10.874,-30.944c-4.087,-2.961 -7.743,-7.393 -10.074,-13.988l-0.01,-0.029l-9.607,-27.117l-0.096,-0.279c-1.207,-3.573 -1.772,-6.402 -1.772,-9.081c0,-9.449 4.464,-16.005 10.976,-20.351c4.58,-3.057 10.809,-4.491 14.177,-4.906c0.165,-0.02 0.329,-0.039 0.494,-0.055c13.813,-1.358 23.613,-3.478 30.487,-6.175c-2.054,-0.33 -4.264,-0.559 -6.434,-0.559c-10.781,0 -24.905,2.435 -41.825,8.108c-2.261,0.802 -5.525,1.644 -9.822,1.644c-8.938,0 -20.664,-4.681 -25.133,-17.909l-0.087,-0.263l-13.179,-40.851c-0.644,-1.998 -0.973,-4.084 -0.973,-6.183l0,-0.791c0,-5.49 3.419,-16.587 17.749,-23.238c16.975,-7.878 62.37,-17.457 92.503,-17.457c76.646,0 120.938,44.082 120.938,89.453c0,29.309 -18.272,61.228 -57.906,79.738Z" style="fill:#ff9500;"/><path d="M75.279,157.567c1.967,5.768 7.211,6.019 9.833,6.019c7.539,0 15.078,-0.251 26.878,-1.003c61.622,-5.266 91.449,-38.62 91.449,-70.97c0,-35.109 -35.4,-65.954 -92.76,-65.954c-31.466,0 -82.927,12.539 -82.927,19.561l0,0.752l12.128,38.87c0.983,3.009 3.606,4.012 5.572,4.012c1.311,0 2.294,-0.251 2.95,-0.502c18.028,-6.269 33.105,-8.777 44.577,-8.777c21.961,0 31.466,8.526 31.466,17.304c0,7.022 -4.917,22.57 -51.788,27.335c-1.967,0.251 -6.883,1.003 -6.883,5.016c0,0.752 0.328,1.505 0.656,2.508l8.85,25.83Zm86.825,49.403c0,-19.811 -12.093,-36.112 -39.953,-36.112c-27.533,0 -40.49,16.802 -40.49,35.861c0,20.313 15.907,35.61 40.163,35.61c24.583,0 40.281,-14.796 40.281,-35.36Z" style="fill:#ebebeb;fill-rule:nonzero;stroke:#ebebeb;stroke-width:1px;"/></g></svg>