<?xml version="1.0" encoding="UTF-8" standalone="no"?><!DOCTYPE svg PUBLIC "-//W3C//DTD SVG 1.1//EN" "http://www.w3.org/Graphics/SVG/1.1/DTD/svg11.dtd"><svg width="100%" height="100%" viewBox="0 0 290 344" version="1.1" xmlns="http://www.w3.org/2000/svg" xmlns:xlink="http://www.w3.org/1999/xlink" xml:space="preserve" xmlns:serif="http://www.serif.com/" style="fill-rule:evenodd;clip-rule:evenodd;stroke-linejoin:round;stroke-miterlimit:2;"><rect x="0" y="0" width="289.822" height="343.216" style="fill:#84d2f5;fill-opacity:0;"/><g><g><g><path d="M272.641,44.932l15.391,61.438c7.959,31.77 -11.373,64.025 -43.143,71.984l-76.851,19.253c-31.77,7.959 -64.025,-11.373 -71.984,-43.143l-15.391,-61.438c-7.959,-31.77 11.373,-64.025 43.143,-71.984l76.851,-19.253c31.77,-7.959 64.025,11.373 71.984,43.143Z" style="fill:#444;"/><path d="M272.641,44.932l15.391,61.438c7.959,31.77 -11.373,64.025 -43.143,71.984l-76.851,19.253c-31.77,7.959 -64.025,-11.373 -71.984,-43.143l-15.391,-61.438c-7.959,-31.77 11.373,-64.025 43.143,-71.984l76.851,-19.253c31.77,-7.959 64.025,11.373 71.984,43.143Z" style="fill:#444;"/><path d="M101.624,168.545c-2.419,-4.344 -4.31,-9.055 -5.569,-14.08l-15.391,-61.438c-7.855,-31.355 11.751,-64.12 44.874,-72.418l73.387,-18.385c33.123,-8.298 65.861,11.353 73.716,42.709l15.391,61.438c5.072,20.248 -1.185,40.922 -15.269,55.421c-5.156,5.308 -12.224,8.33 -19.624,8.39c-7.4,0.06 -14.516,-2.845 -19.758,-8.069l-4.191,-4.176l-3.482,11.404c-2.834,9.284 -10.326,16.405 -19.743,18.764l-5.976,1.497c-10.64,2.666 -21.85,-1.205 -28.58,-9.867l-17.826,-22.948l-0.507,2.961c-1.98,11.57 -11.044,20.631 -22.614,22.61c-11.57,1.978 -23.129,-3.558 -28.84,-13.813Z" style="fill:#444;"/><path d="M203.288,21.618c24.258,-6.077 48.089,8.563 53.842,31.526c5.753,22.963 -8.362,47.109 -32.62,53.186c-24.258,6.077 -48.089,-8.563 -53.842,-31.526c-5.753,-22.963 8.362,-47.109 32.62,-53.186Z" style="fill:#444;"/></g><g><path d="M282.225,193.127l0,81.611c0,37.795 -30.684,68.479 -68.479,68.479l-145.267,0c-37.795,0 -68.479,-30.684 -68.479,-68.479l0,-81.611c0,-37.795 30.684,-68.479 68.479,-68.479l145.267,0c37.795,0 68.479,30.684 68.479,68.479Z" style="fill:#444;"/><path d="M191.302,156.575l0,105.272c0,34.032 -27.63,61.662 -61.662,61.662l-67.977,0c-34.032,0 -61.662,-27.63 -61.662,-61.662l0,-105.272c0,-34.032 27.63,-61.662 61.662,-61.662l67.977,0c34.032,0 61.662,27.63 61.662,61.662Z" style="fill:#444;"/><g><path d="M175.643,196.426l0,76.795c0,19.058 -15.473,34.53 -34.53,34.53c-19.058,0 -34.53,-15.473 -34.53,-34.53l0,-76.795c0,-19.058 15.473,-34.53 34.53,-34.53c19.058,0 34.53,15.473 34.53,34.53Z" style="fill:#444;"/><path d="M102.715,200.293l76.795,-0c19.058,0 34.53,15.473 34.53,34.53c0,19.058 -15.473,34.53 -34.53,34.53l-76.795,0c-19.058,0 -34.53,-15.473 -34.53,-34.53c0,-19.058 15.473,-34.53 34.53,-34.53Z" style="fill:#444;"/></g></g></g><g><g><path d="M260.897,47.875l15.391,61.438c6.335,25.288 -9.052,50.962 -34.34,57.297l-76.851,19.253c-25.288,6.335 -50.962,-9.052 -57.297,-34.34l-15.391,-61.438c-6.335,-25.288 9.052,-50.962 34.34,-57.297l76.851,-19.253c25.288,-6.335 50.962,9.052 57.297,34.34Z" style="fill:#fff;"/><path d="M245.797,51.657l15.391,61.438c4.247,16.954 -6.069,34.167 -23.023,38.415l-76.851,19.253c-16.954,4.247 -34.167,-6.069 -38.415,-23.023l-15.391,-61.438c-4.247,-16.954 6.069,-34.167 23.023,-38.415l76.851,-19.253c16.954,-4.247 34.167,6.069 38.415,23.023Z" style="fill:#444;"/><path d="M125.801,155.079c-1.261,-2.264 -2.245,-4.721 -2.902,-7.34l-15.391,-61.438c-4.247,-16.954 6.845,-34.362 24.755,-38.849l73.387,-18.385c17.91,-4.487 35.899,5.635 40.147,22.589l15.391,61.438c2.696,10.762 -0.789,21.707 -8.275,29.414l-36.765,-36.63l-16.908,55.382l-5.976,1.497l-56.361,-72.555l-11.103,64.876Z" style="fill:#ccc;"/><path d="M210.013,48.462c9.044,-2.266 18.128,2.846 20.273,11.407c2.145,8.561 -3.457,17.351 -12.5,19.617c-9.044,2.266 -18.128,-2.846 -20.273,-11.407c-2.145,-8.561 3.457,-17.351 12.5,-19.617Z" style="fill:#444;"/></g><g><path d="M254.551,193.127l0,81.611c0,22.521 -18.284,40.805 -40.805,40.805l-145.267,0c-22.521,0 -40.805,-18.284 -40.805,-40.805l0,-81.611c0,-22.521 18.284,-40.805 40.805,-40.805l145.267,0c22.521,0 40.805,18.284 40.805,40.805Z" style="fill:#ccc;"/><path d="M163.628,156.575l0,105.272c0,18.759 -15.23,33.989 -33.989,33.989l-67.977,0c-18.759,0 -33.989,-15.23 -33.989,-33.989l0,-105.272c0,-18.759 15.23,-33.989 33.989,-33.989l67.977,0c18.759,0 33.989,15.23 33.989,33.989Z" style="fill:#ccc;"/><g><path d="M147.97,196.426l0,76.795c0,3.784 -3.072,6.857 -6.857,6.857c-3.784,0 -6.857,-3.072 -6.857,-6.857l0,-76.795c0,-3.784 3.072,-6.857 6.857,-6.857c3.784,0 6.857,3.072 6.857,6.857Z" style="fill:#888;"/><path d="M102.715,227.967l76.795,-0c3.784,0 6.857,3.072 6.857,6.857c0,3.784 -3.072,6.857 -6.857,6.857l-76.795,0c-3.784,0 -6.857,-3.072 -6.857,-6.857c0,-3.784 3.072,-6.857 6.857,-6.857Z" style="fill:#888;"/></g></g></g></g></svg>