<?xml version="1.0" encoding="UTF-8" standalone="no"?><!DOCTYPE svg PUBLIC "-//W3C//DTD SVG 1.1//EN" "http://www.w3.org/Graphics/SVG/1.1/DTD/svg11.dtd"><svg width="100%" height="100%" viewBox="0 0 277 302" version="1.1" xmlns="http://www.w3.org/2000/svg" xmlns:xlink="http://www.w3.org/1999/xlink" xml:space="preserve" xmlns:serif="http://www.serif.com/" style="fill-rule:evenodd;clip-rule:evenodd;stroke-linejoin:round;stroke-miterlimit:2;"><rect x="0" y="0" width="276.588" height="301.189" style="fill:#84d2f5;fill-opacity:0;"/><g><g><path d="M93.85,75.708c2.979,-0.478 10.964,-1.114 22.701,2.779c4.923,-8.572 12.208,-17.757 23.038,-23.966c15.338,-8.793 38.47,-13.28 73.472,1.337c33.913,14.162 51.343,43.783 53.219,81.037c2.381,47.273 -22.318,108.522 -68.84,157.554c-4.571,4.818 -11.103,7.268 -17.715,6.644c-3.582,-0.338 -6.973,-1.558 -9.899,-3.494c-6.602,-0.636 -44.152,-4.664 -63.81,-15.726c-73.49,-41.352 -82.554,-60.469 -94.501,-102.844c-5.272,-18.698 -0.287,-46.444 14.567,-68.31c14.884,-21.909 38.606,-37.526 67.766,-35.012Z" style="fill:#e12885;"/><path d="M202.268,28.234c0.349,-0.127 0.783,-0.268 1.302,-0.406c1.19,-1.641 2.536,-3.158 4.053,-4.436c6.327,-5.33 16.407,-10.421 33.746,-6.59c16.198,3.578 26.709,14.983 30.547,31.399c3.796,16.237 -0.221,39.167 -13.238,59.07c-3.638,5.563 -9.634,9.143 -16.257,9.708c-2.129,0.182 -4.247,0.045 -6.292,-0.386c-4.343,0.098 -15.25,0.1 -21.465,-2.06c-29.117,-10.117 -33.07,-17.125 -40.132,-31.606c-3.991,-8.184 -4.655,-21.405 0.355,-32.724c4.933,-11.144 14.385,-19.924 27.38,-21.969Zm-6.466,18.009l-0.035,0.018c-0.054,0.258 -0.181,1.022 -0.181,1.022c0,0 0.068,-0.376 0.216,-1.04Z" style="fill:#e12885;"/></g><g><path d="M84.373,60.243c2.979,-0.478 10.964,-1.114 22.701,2.779c4.923,-8.572 12.208,-17.757 23.038,-23.966c15.338,-8.793 38.47,-13.28 73.472,1.337c33.913,14.162 51.343,43.783 53.219,81.037c2.381,47.273 -22.318,108.522 -68.84,157.554c-4.571,4.818 -11.103,7.268 -17.715,6.644c-3.582,-0.338 -6.973,-1.558 -9.899,-3.494c-6.602,-0.636 -44.152,-4.664 -63.81,-15.726c-73.49,-41.352 -82.554,-60.469 -94.501,-102.844c-5.272,-18.698 -0.287,-46.444 14.567,-68.31c14.884,-21.909 38.606,-37.526 67.766,-35.012Z" style="fill:#fff;"/><path d="M192.791,12.769c0.349,-0.127 0.783,-0.268 1.302,-0.406c1.19,-1.641 2.536,-3.158 4.053,-4.436c6.327,-5.33 16.407,-10.421 33.746,-6.59c16.198,3.578 26.709,14.983 30.547,31.399c3.796,16.237 -0.221,39.167 -13.238,59.07c-3.638,5.563 -9.634,9.143 -16.257,9.708c-2.129,0.182 -4.247,0.045 -6.292,-0.386c-4.343,0.098 -15.25,0.1 -21.465,-2.06c-29.117,-10.117 -33.07,-17.125 -40.132,-31.606c-3.991,-8.184 -4.655,-21.405 0.355,-32.724c4.933,-11.144 14.385,-19.924 27.38,-21.969Zm-6.466,18.009l-0.035,0.018c-0.054,0.258 -0.181,1.022 -0.181,1.022c0,0 0.068,-0.376 0.216,-1.04Z" style="fill:#fff;"/></g><g><path d="M172.28,264.104c-4.259,-6.631 -40.599,-2.729 -65.138,-16.537c-64.832,-36.48 -73.755,-52.486 -84.294,-89.868c-7.793,-27.64 18.238,-81.25 61.804,-75.687c2.391,0.305 11.123,-4.291 33.199,10.449c3.009,-7.43 12.568,-59.192 77.403,-32.117c64.633,26.991 46.899,130.118 -22.973,203.761Z" style="fill:#e12885;"/><path d="M231.107,79.972c-1.509,-1.622 -11.352,1.27 -18.824,-1.326c-19.74,-6.859 -23.008,-10.842 -27.795,-20.66c-3.54,-7.259 0.961,-23.391 13.275,-24.025c0.676,-0.035 2.857,-1.742 9.695,1.235c0.458,-2.206 0.502,-17.005 19.77,-12.748c19.209,4.243 19.485,33.662 3.878,57.524Z" style="fill:#e12885;"/></g><path d="M112.316,112.319c6.404,-5.03 7.266,-3.521 22.678,-6.689c6.277,-1.29 43.36,15.947 48.947,22.537c-10.442,1.564 -13.078,5.386 -30.623,11.824c-17.341,6.363 -16.687,8.301 -15.619,11.426c18.743,54.81 26.225,60.122 10.287,71.899c-6.319,4.669 -18.461,14.212 -40.124,-4.379c-16.635,-14.275 -1.369,-36.04 6.329,-36.467c4.559,-0.253 3.456,-2.92 17.225,0.007c0.917,0.195 -0.612,-0.409 9.837,2.287c-1.008,-1.563 -5.234,-15.082 -8.776,-21.568c-1.2,-2.197 -22.037,-46.974 -20.162,-50.877Z" style="fill:#fff;"/></g><g><path d="M199.263,480.344c1.208,-0.282 4.971,-0.929 11.696,-0.125c-4.459,-17.923 -16.032,-67.31 -18.968,-91.974c-1.186,-9.965 -0.783,-17.55 0.063,-21.43c1.203,-5.519 3.442,-9.467 5.53,-12.243c2.609,-3.471 5.981,-6.297 9.854,-8.26c18.354,-9.301 19.54,-7.038 59.296,-7.276c6.179,-0.037 21.079,4.546 37.834,14.966c18.239,11.342 41.589,28.855 56.124,42.214c8.731,8.025 14.73,15.39 17.373,20.153c4.995,9.003 4.722,20.004 -0.714,28.748c-5.435,8.744 -15.18,13.857 -25.464,13.362c-19.054,-0.917 -24.955,5.593 -58.316,10.803c-2.983,0.466 -5.926,1.006 -8.643,1.55c6.784,47.755 12.421,75.86 12.954,93.922c0.511,17.35 -3.021,29.054 -9.37,38.549c-5.975,8.935 -15.069,16.447 -29.857,23.403c-10.445,4.913 -25.985,11.604 -45.181,9.712c-18.122,-1.786 -41.043,-10.764 -65.468,-41.921c-30.795,-39.283 -10.868,-80.541 13.265,-100.425c13.218,-10.891 27.976,-14.621 37.993,-13.728Z" style="fill:#6948cd;"/></g></svg>