<?xml version="1.0" encoding="UTF-8" standalone="no"?><!DOCTYPE svg PUBLIC "-//W3C//DTD SVG 1.1//EN" "http://www.w3.org/Graphics/SVG/1.1/DTD/svg11.dtd"><svg width="100%" height="100%" viewBox="0 0 262 298" version="1.1" xmlns="http://www.w3.org/2000/svg" xmlns:xlink="http://www.w3.org/1999/xlink" xml:space="preserve" xmlns:serif="http://www.serif.com/" style="fill-rule:evenodd;clip-rule:evenodd;stroke-linejoin:round;stroke-miterlimit:2;"><g><path d="M124.099,204.014l0,43.559c0,13.918 -11.3,25.218 -25.218,25.218l-50.437,0c-13.918,0 -25.218,-11.3 -25.218,-25.218l0,-119.214c0,-10.004 5.618,-17.227 11.653,-22.841l94.818,-88.678l99.947,88.013c6.799,5.234 9.085,14.216 9.085,23.505l0,119.214c0,13.918 -11.3,25.218 -25.218,25.218l-50.437,0c-13.918,0 -25.218,-11.3 -25.218,-25.218l0,-43.559l-13.755,0Z" style="fill:#ebebeb;"/><path d="M130.977,283.846c-8.549,7.571 -19.79,12.17 -32.096,12.17l-50.437,0c-26.737,0 -48.444,-21.707 -48.444,-48.444l0,-119.214c0,-17.214 8.645,-30.147 19.024,-39.812l82.727,-77.369c15.586,-14.577 39.693,-14.938 55.709,-0.834l87.065,76.67c11.832,9.532 17.428,24.841 17.428,41.346l0,119.214c0,26.737 -21.707,48.444 -48.444,48.444l-50.437,0c-12.306,0 -23.547,-4.599 -32.096,-12.17Zm-84.526,-155.488l0,119.214c0,1.1 0.893,1.993 1.993,1.993l50.437,0c1.1,0 1.993,-0.893 1.993,-1.993l0,-54.72c-0,-12.827 10.398,-23.225 23.225,-23.225l13.755,0c12.827,0 23.225,10.398 23.225,23.225l0,54.72c0,1.1 0.893,1.993 1.993,1.993l50.437,0c1.1,0 1.993,-0.893 1.993,-1.993l0,-119.214c0,-1.805 -0.596,-4.825 -0.778,-5.704c-0.145,-0.122 -0.289,-0.245 -0.431,-0.37l-84.128,-74.083l-79.424,74.28l-0.046,0.043c-1.698,1.58 -4.246,3.019 -4.246,5.835Z" style="fill:#0069ad;"/></g><g><path d="M362.45,-263.247c2.979,-0.478 10.964,-1.114 22.701,2.779c4.923,-8.572 12.208,-17.757 23.038,-23.966c15.338,-8.793 38.47,-13.28 73.472,1.337c33.913,14.162 51.343,43.783 53.219,81.037c2.381,47.273 -22.318,108.522 -68.84,157.554c-4.571,4.818 -11.103,7.268 -17.715,6.644c-3.582,-0.338 -6.973,-1.558 -9.899,-3.494c-6.602,-0.636 -44.152,-4.664 -63.81,-15.726c-73.49,-41.352 -82.554,-60.469 -94.501,-102.844c-5.272,-18.698 -0.287,-46.444 14.567,-68.31c14.884,-21.909 38.606,-37.526 67.766,-35.012Z" style="fill:#e12885;"/></g><g><path d="M352.973,-278.711c2.979,-0.478 10.964,-1.114 22.701,2.779c4.923,-8.572 12.208,-17.757 23.038,-23.966c15.338,-8.793 38.47,-13.28 73.472,1.337c33.913,14.162 51.343,43.783 53.219,81.037c2.381,47.273 -22.318,108.522 -68.84,157.554c-4.571,4.818 -11.103,7.268 -17.715,6.644c-3.582,-0.338 -6.973,-1.558 -9.899,-3.494c-6.602,-0.636 -44.152,-4.664 -63.81,-15.726c-73.49,-41.352 -82.554,-60.469 -94.501,-102.844c-5.272,-18.698 -0.287,-46.444 14.567,-68.31c14.884,-21.909 38.606,-37.526 67.766,-35.012Z" style="fill:#fff;"/></g></svg>