<?xml version="1.0" encoding="UTF-8" standalone="no"?><!DOCTYPE svg PUBLIC "-//W3C//DTD SVG 1.1//EN" "http://www.w3.org/Graphics/SVG/1.1/DTD/svg11.dtd"><svg width="100%" height="100%" viewBox="0 0 2425 1722" version="1.1" xmlns="http://www.w3.org/2000/svg" xmlns:xlink="http://www.w3.org/1999/xlink" xml:space="preserve" xmlns:serif="http://www.serif.com/" style="fill-rule:evenodd;clip-rule:evenodd;stroke-linecap:round;stroke-linejoin:round;stroke-miterlimit:1.5;"><g><g id="Shadow"><g><path d="M1282.547,56.702c465.495,0 841.16,361.491 841.16,803.829c0,442.338 -375.666,803.829 -841.16,803.829c-465.495,0 -841.16,-361.491 -841.16,-803.829c0,-442.338 375.666,-803.829 841.16,-803.829Z"/><path d="M1282.547,193.136c390.272,0 706.761,314.683 706.761,701.834c0,387.151 -316.489,701.834 -706.761,701.834c-390.272,0 -706.761,-314.683 -706.761,-701.834c0,-387.151 316.489,-701.834 706.761,-701.834Z"/><path d="M1245.065,255.837c355.388,0 643.555,286.588 643.555,639.133c0,352.545 -288.167,639.133 -643.555,639.133c-355.388,0 -643.555,-286.588 -643.555,-639.133c0,-352.545 288.167,-639.133 643.555,-639.133Z"/><path d="M1313.742,122.12c417.428,0 755.446,333.223 755.446,742.557c0,409.334 -338.018,742.557 -755.446,742.557c-417.428,0 -755.446,-333.223 -755.446,-742.557c0,-409.334 338.018,-742.557 755.446,-742.557Z"/><path d="M1384.179,177.071l-0,596.884l623.318,0c50.105,0 90.723,40.618 90.723,90.723c0,428.898 -359.377,778.329 -804.763,778.329c-445.088,0 -804.763,-349.718 -804.763,-778.329c0,-428.898 359.377,-778.329 804.763,-778.329c50.105,0 90.723,40.618 90.723,90.723Z"/><path d="M1282.547,577.395c163.076,0 293.209,128.173 293.209,283.136c0,154.963 -130.134,283.136 -293.209,283.136c-163.076,0 -293.209,-128.173 -293.209,-283.136c0,-154.963 130.134,-283.136 293.209,-283.136Z"/><path d="M1282.547,735.37c72.817,0 128.205,58.257 128.205,125.161c0,66.905 -55.388,125.161 -128.205,125.161c-72.817,0 -128.205,-58.257 -128.205,-125.161c0,-66.905 55.388,-125.161 128.205,-125.161Zm0,181.445c31.487,0 53.241,-27.353 53.241,-56.284c0,-28.931 -21.754,-56.284 -53.241,-56.284c-31.487,0 -53.241,27.353 -53.241,56.284c0,28.931 21.754,56.284 53.241,56.284Zm0,-90.723c20.687,0 37.482,15.431 37.482,34.439c0,19.007 -16.795,34.439 -37.482,34.439c-20.687,0 -37.482,-15.431 -37.482,-34.439c0,-19.007 16.795,-34.439 37.482,-34.439Z"/></g><path d="M1951.183,1203.745c199.215,78.496 294.221,134.583 294.221,134.583c21.398,12.542 36.728,33.297 42.423,57.437c5.695,24.14 1.259,49.559 -12.276,70.342c0,0 -76.463,115.053 -132.304,161.305c-19.546,16.189 -44.979,23.451 -70.126,20.023c-25.147,-3.428 -47.708,-17.234 -62.207,-38.064c-63.08,-90.63 -68.642,-87.394 -124.381,-181.588c-10.666,-18.024 -42.772,-64.677 -52.843,-95.311c-8.317,-25.299 -8.058,-47.828 -4.171,-64.695c5.931,-25.735 22.782,-47.608 46.152,-59.908c23.37,-12.3 50.941,-13.806 75.511,-4.124Z"/><g><g><path d="M820.983,804.501l-0.018,0.008l-63.932,30.284c-17.106,8.348 -34.331,12.023 -51.432,12.023c-32.684,0 -63.072,-11.054 -86.523,-45c-18.338,23.408 -46.705,38.019 -79.014,38.019l-0.997,-0c-1.583,-0 -3.165,-0.041 -4.746,-0.124l-104.707,-5.485c-49.7,-2.599 -95.451,-45.671 -95.451,-100.571l0,-0.997c-0,-1.528 0.039,-3.056 0.116,-4.582l19.944,-394.397c0.075,-1.484 0.187,-2.967 0.334,-4.445c4.912,-49.119 51.125,-91.169 100.245,-91.169l0.997,0c1.47,0 2.94,0.036 4.408,0.107l77.839,3.787c22.909,-5.607 46.106,-8.382 68.83,-8.382c141.956,0 265.733,105.103 265.733,246.288c-0,26.797 -5.267,68.07 -24.423,108.496c17.94,41.875 30.798,81.846 33.97,94.38c3.312,13.084 3.417,21.974 3.417,25.486c0,33.449 -9.144,72.398 -64.592,96.275Zm-257.864,-317.265c0.878,15.514 7.914,31.568 25.116,31.988l31.219,-37.93l-22.278,-35.756c-8.661,0.531 -14.593,5.003 -19.392,8.977c-7.694,6.373 -12.581,14.932 -14.183,23.35l-0.483,9.372Z" style="fill-rule:nonzero;"/><path d="M1003.233,420.649c20.25,-25.792 46.044,-37.49 79.814,-37.49c13.416,0 33.738,2.601 55.909,15.041l72.037,37.228c45.707,23.101 58.509,57.303 58.509,91.804c0,4.657 -0.256,22.428 -12.886,51.949c-17.23,40.271 -76.377,152.696 -249.608,363.199c-0.946,1.15 -1.921,2.276 -2.923,3.378c-25.733,28.307 -51.706,38.172 -82.586,38.172c-11.912,-0 -26.23,-1.756 -42.733,-8.501l-0.039,-0.015l-71.186,-27.492c-0.337,-0.13 -0.673,-0.262 -1.009,-0.397c-54.276,-21.71 -67.998,-60.017 -67.998,-96.2c0,-20.308 5.83,-41.575 19.954,-61.878l49.258,-73.103l-76.424,-172.873c-0.139,-0.314 -0.276,-0.629 -0.411,-0.945c-7.352,-17.154 -9.828,-32.46 -9.828,-44.712c0,-47.01 29.393,-86.8 79.31,-100.713l78.436,-23.185c1.231,-0.364 2.469,-0.701 3.714,-1.013c9.282,-2.321 18.704,-3.706 27.987,-3.706c39.09,0 72.366,19.252 92.704,51.451Z" style="fill-rule:nonzero;"/><path d="M1160.341,387.728c3.19,-19.098 11.611,-40.766 27.355,-57.351c15.471,-16.298 37.962,-31.98 76.344,-31.98l1.994,0c1.439,-0 2.878,0.034 4.315,0.103l94.236,4.487c0.337,0.016 0.675,0.034 1.012,0.054c33.423,1.966 56.362,16.392 72.582,35.069c13.868,15.969 24.228,37.234 25.203,65.129c24.14,18.3 40.462,47.343 40.462,81.114c0,2.183 -0.079,4.364 -0.236,6.541l-5.983,82.768c-0.06,0.83 -0.131,1.658 -0.214,2.486c-1.749,17.487 -8.11,34.079 -18.016,48.196c9.102,14.689 13.978,31.573 13.978,49.977c0,8.043 -1.631,20.613 -5.653,32.678c-0.666,1.999 -1.402,3.973 -2.205,5.921l-25.927,62.824l-0.248,0.596c-22.544,53.543 -57.298,69.977 -99.569,69.977c-8.352,0 -16.596,-0.816 -24.875,-2.787c-53.105,-10.996 -91.159,-32.065 -119.678,-63.447c-26.825,-29.518 -46.473,-71.723 -55.67,-135.203c-31.248,-17.872 -53.045,-52.046 -53.045,-88.727c0,-2.183 0.079,-4.364 0.236,-6.541l5.983,-82.768c0.04,-0.558 0.086,-1.115 0.136,-1.672c2.933,-32.259 20.703,-60.873 47.481,-77.442Z" style="fill-rule:nonzero;"/><path d="M1681.848,378.42c108.579,25.505 185.549,109.226 187.465,235.67c0.046,2.98 0.465,7.326 0.779,10.216c17.523,15.723 39.12,49.446 39.12,80.928c0,22.198 -5.092,50.721 -36.169,77.358c-0.486,0.417 -0.977,0.828 -1.472,1.235l-47.367,38.891l-0.12,0.099c-26.248,21.476 -50.931,26.49 -72.407,26.49c-1.91,0 -51.63,-5.935 -99.033,-37.745c-18.475,18.415 -44.003,29.269 -71.49,29.269l-99.721,0c-57.825,0 -101.193,-43.369 -101.193,-101.193l0,-407.859c0,-53.006 43.369,-101.193 101.193,-101.193l99.721,0c54.149,0 100.695,47.044 100.695,101.193l0,46.641Z" style="fill-rule:nonzero;"/><path d="M2366.352,613.393c17.149,16.033 38.473,49.568 38.473,79.875c0,21.91 -6.522,48.536 -29.545,71.249l-0.397,0.423c-7.437,7.874 -44.565,43.368 -44.565,43.368c-0.514,0.49 -1.034,0.974 -1.56,1.452c-27.214,24.74 -51.245,30.574 -75.985,30.574c-5.558,0 -38.01,-3.214 -74.039,-21.386c-14.461,10.308 -31.889,16.794 -50.875,18.52c-1.113,0.101 -2.227,0.182 -3.343,0.242l-92.741,4.986c-1.622,0.087 -3.246,0.131 -4.871,0.131l-0.997,0c-8.373,0 -16.638,-1.101 -24.614,-3.195c-8.356,2.998 -17.246,4.972 -26.506,5.814c-1.282,0.117 -2.566,0.206 -3.852,0.268l-93.239,4.487c-1.453,0.07 -2.907,0.105 -4.361,0.105l-0.997,-0c-49.329,-0 -94.891,-38.22 -99.824,-92.481c-0.117,-1.284 -0.206,-2.57 -0.268,-3.857l-12.465,-259.275c-0.07,-1.451 -0.105,-2.904 -0.105,-4.357l-0,-0.997c0,-55.258 40.436,-95.221 90.67,-100.245c1.496,-0.15 2.995,-0.262 4.497,-0.337l18.461,-0.922c30.845,-8.994 61.106,-13.152 90.278,-13.152c21.405,0 41.89,2.229 61.484,6.7c32.087,-9.095 62.835,-13.182 91.588,-13.182c138.548,0 239.457,88.069 248.111,231.242c0.259,4.205 1.056,10.221 1.587,13.95Z" style="fill-rule:nonzero;"/></g><g><path d="M591.062,1286.829l-18.448,-355.007c-0.081,-1.568 -0.122,-3.138 -0.122,-4.708l0,-0.997c0,-53.163 41.427,-99.612 98.318,-101.623l42.935,-2.59c35.323,-12.003 78.121,-19.417 121.489,-19.417c87.226,0 148.092,27.301 188.301,62.725c48.396,42.637 70.452,99.381 70.452,155.64c-0,27.818 -5.782,53.493 -15.801,76.63c1.398,2.883 2.744,5.858 4.017,8.88c13.917,32.14 19.762,62.788 19.762,89.999c-0,62.404 -27.947,114.286 -75.462,152.962c-52.889,43.05 -134.48,68.396 -216.199,68.396c-26.982,0 -97.842,-6.674 -141.654,-27.416c-43.678,-20.679 -68.742,-54.364 -75.947,-90.389c-0.863,-4.316 -1.411,-8.689 -1.64,-13.084Zm204.047,-231.754c1.759,3.537 3.957,6.924 6.588,10.111c6.939,-0.534 14.25,-0.848 21.807,-0.918l21.373,-28.085l-39.96,-36.447c-4.345,5.268 -8.779,11.644 -11.695,18.436l1.887,36.902Zm8.489,164.693c3.028,5.633 7.039,10.659 11.763,15.173c1.907,0.132 3.796,0.221 5.677,0.269l38.027,-45.382l-21.538,-23.577c-13.129,1.99 -25.296,2.996 -34.782,3.463c-0.557,1.187 -1.072,2.391 -1.544,3.614l2.397,46.44Z" style="fill-rule:nonzero;"/><path d="M1460.463,1177.377c20.056,19.375 31.908,45.141 31.908,71.337c0,9.782 -1.292,25.496 -11.074,45.06c-0.133,0.267 -0.268,0.533 -0.404,0.799l-30.914,60.331c-0.185,0.36 -0.372,0.719 -0.561,1.077c-24.88,46.996 -60.197,61.238 -96.135,61.238c-6.388,0 -39.184,-4.813 -74.565,-21.316c-23.122,6.397 -46.211,9.349 -68.535,9.349c-133.714,0 -245.789,-105.909 -245.789,-234.82c0,-97.625 70.747,-236.814 231.828,-236.814c24.434,0 48.539,3.529 70.522,9.479c3.785,-0.333 7.699,-0.504 11.748,-0.504l2.493,0c2.616,-0 5.231,0.113 7.837,0.339l85.772,7.438c35.453,2.823 56.212,17.458 69.889,31.136c21.235,21.235 29.938,47.269 29.938,72.752l-0,2.493c-0,4.618 -0.353,9.23 -1.055,13.795c-6.12,39.777 -12.748,77.767 -12.903,106.83Zm-208.178,-30.92c-6.685,-8.14 -16.986,-13.395 -30.134,-13.395c-1.246,0 -2.754,-0.113 -4.263,0.543l-33.352,57.861c8.765,8.672 20.806,15.343 34.623,15.343c13.328,0 25.231,-5.412 32.904,-13.584c-0.318,-6.026 -0.495,-12.281 -0.495,-18.802c0,-8.973 0.239,-18.185 0.717,-27.966Z" style="fill-rule:nonzero;"/><path d="M1362.223,1192.702c-15.56,-28.897 -20.883,-55.497 -20.883,-79.109c0,-52.116 25.713,-96.967 71.465,-129.012c43.385,-30.387 108.555,-47.97 165.848,-47.97c50.679,-0 71.777,15.701 86.253,29.346c10.626,10.016 19.546,22.294 26.223,39.464l0.027,0.07l21.368,55.083c7.054,15.85 8.208,28.077 8.208,40.553c0,21.164 -5.497,40.53 -15.95,56.366c14.623,27.86 19.939,53.843 19.939,76.262c0,53.036 -27.054,99.417 -75.307,132.317c-45.866,31.272 -114.232,49.152 -171.479,49.152l-5.485,0c-33.046,0 -53.624,-9.789 -69.366,-21.866c-14.133,-10.842 -26.462,-25.291 -34.675,-47.861l-21.67,-57.13c-0.438,-1.153 -0.851,-2.316 -1.242,-3.486c-4.022,-12.065 -5.653,-24.635 -5.653,-32.678c0,-23.397 8.797,-43.572 22.379,-59.503Z" style="fill-rule:nonzero;"/><path d="M1979.987,1281.333c-5.77,20.933 -14.691,48.9 -22.159,65.828c-0.588,1.332 -1.208,2.651 -1.859,3.953c-17.076,34.152 -44.174,65.108 -106.075,65.108l-5.983,0c-176.602,0 -260.747,-125.541 -260.747,-243.795c0,-112.902 74.752,-236.814 254.764,-236.814c62.081,0 105.716,18.738 137.292,42.717c75.567,57.385 82.569,154.882 82.569,174.651c0,30.708 -8.035,58.263 -24.224,81.962c-12.042,17.629 -28.902,34.003 -53.578,46.389Z" style="fill-rule:nonzero;"/></g></g><path d="M493.013,1033.424c58.309,76.236 95.665,120.996 115.469,153.57c22.538,37.072 29.979,67.062 29.661,95.804c-0.307,27.798 -8.216,56.309 -28.337,91.236c-14.759,25.619 -38.583,61.64 -80.192,83.381c-39.469,20.622 -98.751,33.986 -190.266,-5.255c-108.811,-46.658 -125.25,-161.942 -103.663,-236.795c11.482,-39.814 34.725,-67.58 55.951,-82.657c-34.597,-38.162 -90.692,-101.668 -117.768,-138.919c-27.976,-38.49 -32.394,-72.992 -31.678,-84.673c0.803,-13.098 4.437,-25.867 10.653,-37.424c23.667,-44.003 27.344,-41.563 103.561,-93.223c13.479,-9.136 52.283,-22.126 103.837,-20.652c45.865,1.311 108.063,9.119 149.648,18.974c28.613,6.781 50.446,16.122 62.223,23.627c26.56,16.925 42.442,46.413 41.958,77.903c-0.484,31.49 -17.264,60.477 -44.332,76.577c-12.512,7.443 -17.498,15.418 -27.047,26.344c-11.925,13.646 -26.778,30.326 -49.68,52.183Z"/><path d="M235.383,115.16c2.256,0.075 5.241,0.307 8.864,0.882c8.069,-5.333 16.678,-9.819 25.663,-12.811c34.214,-11.392 83.178,-15.427 147.262,27.921c60.148,40.685 84.297,104.061 73.371,176.949c-11.027,73.554 -65.764,161.842 -152.662,222.905c-22.802,16.023 -51.703,20.677 -78.383,12.622c-8.833,-2.667 -17.098,-6.629 -24.57,-11.678c-17.53,-6.412 -63.72,-24.422 -86.198,-43.807c-103.882,-89.59 -109.019,-124.871 -114.433,-196.287c-3.002,-39.593 15.796,-94.182 54.398,-131.986c38.011,-37.226 90.592,-57.653 146.688,-44.709Zm-50.119,61.859l-0.129,0.013c-0.583,0.882 -2.196,3.538 -2.196,3.538c0,0 0.802,-1.292 2.325,-3.551Z"/></g><g><g><path d="M1248.561,0c465.495,0 841.16,361.491 841.16,803.829c0,442.338 -375.666,803.829 -841.16,803.829c-465.495,0 -841.16,-361.491 -841.16,-803.829c0,-442.338 375.666,-803.829 841.16,-803.829Z" style="fill:#fff;"/><path d="M1248.561,136.434c390.272,0 706.761,314.683 706.761,701.834c0,387.151 -316.489,701.834 -706.761,701.834c-390.272,0 -706.761,-314.683 -706.761,-701.834c0,-387.151 316.489,-701.834 706.761,-701.834Z" style="fill:#fff;"/><path d="M1211.079,199.135c355.388,0 643.555,286.588 643.555,639.133c0,352.545 -288.167,639.133 -643.555,639.133c-355.388,0 -643.555,-286.588 -643.555,-639.133c0,-352.545 288.167,-639.133 643.555,-639.133Z" style="fill:#fff;"/><path d="M1279.755,65.418c417.428,0 755.446,333.223 755.446,742.557c0,409.334 -338.018,742.557 -755.446,742.557c-417.428,0 -755.446,-333.223 -755.446,-742.557c0,-409.334 338.018,-742.557 755.446,-742.557Z" style="fill:#fff;"/><path d="M1350.192,120.369l-0,596.884l623.318,0c50.105,0 90.723,40.618 90.723,90.723c0,428.898 -359.377,778.329 -804.763,778.329c-445.088,0 -804.763,-349.718 -804.763,-778.329c0,-428.898 359.377,-778.329 804.763,-778.329c50.105,0 90.723,40.618 90.723,90.723Z" style="fill:#fff;"/><path d="M1248.561,520.693c163.076,0 293.209,128.173 293.209,283.136c0,154.963 -130.134,283.136 -293.209,283.136c-163.076,0 -293.209,-128.173 -293.209,-283.136c0,-154.963 130.134,-283.136 293.209,-283.136Z" style="fill:#fff;"/><path d="M1248.561,678.668c72.817,0 128.205,58.257 128.205,125.161c0,66.905 -55.388,125.161 -128.205,125.161c-72.817,0 -128.205,-58.257 -128.205,-125.161c0,-66.905 55.388,-125.161 128.205,-125.161Zm0,181.445c31.487,0 53.241,-27.353 53.241,-56.284c0,-28.931 -21.754,-56.284 -53.241,-56.284c-31.487,0 -53.241,27.353 -53.241,56.284c0,28.931 21.754,56.284 53.241,56.284Zm0,-90.723c20.687,0 37.482,15.431 37.482,34.439c0,19.007 -16.795,34.439 -37.482,34.439c-20.687,0 -37.482,-15.431 -37.482,-34.439c0,-19.007 16.795,-34.439 37.482,-34.439Z" style="fill:#fff;"/></g><path d="M1917.197,1147.043c199.215,78.496 294.221,134.583 294.221,134.583c21.398,12.542 36.728,33.297 42.423,57.437c5.695,24.14 1.259,49.559 -12.276,70.342c0,0 -76.463,115.053 -132.304,161.305c-19.546,16.189 -44.979,23.451 -70.126,20.023c-25.147,-3.428 -47.708,-17.234 -62.207,-38.064c-63.08,-90.63 -68.642,-87.394 -124.381,-181.588c-10.666,-18.024 -42.772,-64.677 -52.843,-95.311c-8.317,-25.299 -8.058,-47.828 -4.171,-64.695c5.931,-25.735 22.782,-47.608 46.152,-59.908c23.37,-12.3 50.941,-13.806 75.511,-4.124Z" style="fill:#fff;"/><g><g><path d="M786.997,747.799l-0.018,0.008l-63.932,30.284c-17.106,8.348 -34.331,12.023 -51.432,12.023c-32.684,0 -63.072,-11.054 -86.523,-45c-18.338,23.408 -46.705,38.019 -79.014,38.019l-0.997,-0c-1.583,-0 -3.165,-0.041 -4.746,-0.124l-104.707,-5.485c-49.7,-2.599 -95.451,-45.671 -95.451,-100.571l0,-0.997c-0,-1.528 0.039,-3.056 0.116,-4.582l19.944,-394.397c0.075,-1.484 0.187,-2.967 0.334,-4.445c4.912,-49.119 51.125,-91.169 100.245,-91.169l0.997,0c1.47,0 2.94,0.036 4.408,0.107l77.839,3.787c22.909,-5.607 46.106,-8.382 68.83,-8.382c141.956,0 265.733,105.103 265.733,246.288c-0,26.797 -5.267,68.07 -24.423,108.496c17.94,41.875 30.798,81.846 33.97,94.38c3.312,13.084 3.417,21.974 3.417,25.486c0,33.449 -9.144,72.398 -64.592,96.275Zm-257.864,-317.265c0.878,15.514 7.914,31.568 25.116,31.988l31.219,-37.93l-22.278,-35.756c-8.661,0.531 -14.593,5.003 -19.392,8.977c-7.694,6.373 -12.581,14.932 -14.183,23.35l-0.483,9.372Z" style="fill:#fff;fill-rule:nonzero;"/><path d="M969.246,363.948c20.25,-25.792 46.044,-37.49 79.814,-37.49c13.416,0 33.738,2.601 55.909,15.041l72.037,37.228c45.707,23.101 58.509,57.303 58.509,91.804c0,4.657 -0.256,22.428 -12.886,51.949c-17.23,40.271 -76.377,152.696 -249.608,363.199c-0.946,1.15 -1.921,2.276 -2.923,3.378c-25.733,28.307 -51.706,38.172 -82.586,38.172c-11.912,-0 -26.23,-1.756 -42.733,-8.501l-0.039,-0.015l-71.186,-27.492c-0.337,-0.13 -0.673,-0.262 -1.009,-0.397c-54.276,-21.71 -67.998,-60.017 -67.998,-96.2c0,-20.308 5.83,-41.575 19.954,-61.878l49.258,-73.103l-76.424,-172.873c-0.139,-0.314 -0.276,-0.629 -0.411,-0.945c-7.352,-17.154 -9.828,-32.46 -9.828,-44.712c0,-47.01 29.393,-86.8 79.31,-100.713l78.436,-23.185c1.231,-0.364 2.469,-0.701 3.714,-1.013c9.282,-2.321 18.704,-3.706 27.987,-3.706c39.09,0 72.366,19.252 92.704,51.451Z" style="fill:#fff;fill-rule:nonzero;"/><path d="M1126.354,331.026c3.19,-19.098 11.611,-40.766 27.355,-57.351c15.471,-16.298 37.962,-31.98 76.344,-31.98l1.994,0c1.439,-0 2.878,0.034 4.315,0.103l94.236,4.487c0.337,0.016 0.675,0.034 1.012,0.054c33.423,1.966 56.362,16.392 72.582,35.069c13.868,15.969 24.228,37.234 25.203,65.129c24.14,18.3 40.462,47.343 40.462,81.114c0,2.183 -0.079,4.364 -0.236,6.541l-5.983,82.768c-0.06,0.83 -0.131,1.658 -0.214,2.486c-1.749,17.487 -8.11,34.079 -18.016,48.196c9.102,14.689 13.978,31.573 13.978,49.977c0,8.043 -1.631,20.613 -5.653,32.678c-0.666,1.999 -1.402,3.973 -2.205,5.921l-25.927,62.824l-0.248,0.596c-22.544,53.543 -57.298,69.977 -99.569,69.977c-8.352,0 -16.596,-0.816 -24.875,-2.787c-53.105,-10.996 -91.159,-32.065 -119.678,-63.447c-26.825,-29.518 -46.473,-71.723 -55.67,-135.203c-31.248,-17.872 -53.045,-52.046 -53.045,-88.727c0,-2.183 0.079,-4.364 0.236,-6.541l5.983,-82.768c0.04,-0.558 0.086,-1.115 0.136,-1.672c2.933,-32.259 20.703,-60.873 47.481,-77.442Z" style="fill:#fff;fill-rule:nonzero;"/><path d="M1647.861,321.718c108.579,25.505 185.549,109.226 187.465,235.67c0.046,2.98 0.465,7.326 0.779,10.216c17.523,15.723 39.12,49.446 39.12,80.928c0,22.198 -5.092,50.721 -36.169,77.358c-0.486,0.417 -0.977,0.828 -1.472,1.235l-47.367,38.891l-0.12,0.099c-26.248,21.476 -50.931,26.49 -72.407,26.49c-1.91,0 -51.63,-5.935 -99.033,-37.745c-18.475,18.415 -44.003,29.269 -71.49,29.269l-99.721,0c-57.825,0 -101.193,-43.369 -101.193,-101.193l0,-407.859c0,-53.006 43.369,-101.193 101.193,-101.193l99.721,0c54.149,0 100.695,47.044 100.695,101.193l0,46.641Z" style="fill:#fff;fill-rule:nonzero;"/><path d="M2332.366,556.692c17.149,16.033 38.473,49.568 38.473,79.875c0,21.91 -6.522,48.536 -29.545,71.249l-0.397,0.423c-7.437,7.874 -44.565,43.368 -44.565,43.368c-0.514,0.49 -1.034,0.974 -1.56,1.452c-27.214,24.74 -51.245,30.574 -75.985,30.574c-5.558,0 -38.01,-3.214 -74.039,-21.386c-14.461,10.308 -31.889,16.794 -50.875,18.52c-1.113,0.101 -2.227,0.182 -3.343,0.242l-92.741,4.986c-1.622,0.087 -3.246,0.131 -4.871,0.131l-0.997,0c-8.373,0 -16.638,-1.101 -24.614,-3.195c-8.356,2.998 -17.246,4.972 -26.506,5.814c-1.282,0.117 -2.566,0.206 -3.852,0.268l-93.239,4.487c-1.453,0.07 -2.907,0.105 -4.361,0.105l-0.997,-0c-49.329,-0 -94.891,-38.22 -99.824,-92.481c-0.117,-1.284 -0.206,-2.57 -0.268,-3.857l-12.465,-259.275c-0.07,-1.451 -0.105,-2.904 -0.105,-4.357l-0,-0.997c0,-55.258 40.436,-95.221 90.67,-100.245c1.496,-0.15 2.995,-0.262 4.497,-0.337l18.461,-0.922c30.845,-8.994 61.106,-13.152 90.278,-13.152c21.405,0 41.89,2.229 61.484,6.7c32.087,-9.095 62.835,-13.182 91.588,-13.182c138.548,0 239.457,88.069 248.111,231.242c0.259,4.205 1.056,10.221 1.587,13.95Z" style="fill:#fff;fill-rule:nonzero;"/></g><g><path d="M557.075,1230.127l-18.448,-355.007c-0.081,-1.568 -0.122,-3.138 -0.122,-4.708l0,-0.997c0,-53.163 41.427,-99.612 98.318,-101.623l42.935,-2.59c35.323,-12.003 78.121,-19.417 121.489,-19.417c87.226,0 148.092,27.301 188.301,62.725c48.396,42.637 70.452,99.381 70.452,155.64c-0,27.818 -5.782,53.493 -15.801,76.63c1.398,2.883 2.744,5.858 4.017,8.88c13.917,32.14 19.762,62.788 19.762,89.999c-0,62.404 -27.947,114.286 -75.462,152.962c-52.889,43.05 -134.48,68.396 -216.199,68.396c-26.982,0 -97.842,-6.674 -141.654,-27.416c-43.678,-20.679 -68.742,-54.364 -75.947,-90.389c-0.863,-4.316 -1.411,-8.689 -1.64,-13.084Zm204.047,-231.754c1.759,3.537 3.957,6.924 6.588,10.111c6.939,-0.534 14.25,-0.848 21.807,-0.918l21.373,-28.085l-39.96,-36.447c-4.345,5.268 -8.779,11.644 -11.695,18.436l1.887,36.902Zm8.489,164.693c3.028,5.633 7.039,10.659 11.763,15.173c1.907,0.132 3.796,0.221 5.677,0.269l38.027,-45.382l-21.538,-23.577c-13.129,1.99 -25.296,2.996 -34.782,3.463c-0.557,1.187 -1.072,2.391 -1.544,3.614l2.397,46.44Z" style="fill:#fff;fill-rule:nonzero;"/><path d="M1426.476,1120.675c20.056,19.375 31.908,45.141 31.908,71.337c0,9.782 -1.292,25.496 -11.074,45.06c-0.133,0.267 -0.268,0.533 -0.404,0.799l-30.914,60.331c-0.185,0.36 -0.372,0.719 -0.561,1.077c-24.88,46.996 -60.197,61.238 -96.135,61.238c-6.388,0 -39.184,-4.813 -74.565,-21.316c-23.122,6.397 -46.211,9.349 -68.535,9.349c-133.714,0 -245.789,-105.909 -245.789,-234.82c0,-97.625 70.747,-236.814 231.828,-236.814c24.434,0 48.539,3.529 70.522,9.479c3.785,-0.333 7.699,-0.504 11.748,-0.504l2.493,0c2.616,-0 5.231,0.113 7.837,0.339l85.772,7.438c35.453,2.823 56.212,17.458 69.889,31.136c21.235,21.235 29.938,47.269 29.938,72.752l-0,2.493c-0,4.618 -0.353,9.23 -1.055,13.795c-6.12,39.777 -12.748,77.767 -12.903,106.83Zm-208.178,-30.92c-6.685,-8.14 -16.986,-13.395 -30.134,-13.395c-1.246,0 -2.754,-0.113 -4.263,0.543l-33.352,57.861c8.765,8.672 20.806,15.343 34.623,15.343c13.328,0 25.231,-5.412 32.904,-13.584c-0.318,-6.026 -0.495,-12.281 -0.495,-18.802c0,-8.973 0.239,-18.185 0.717,-27.966Z" style="fill:#fff;fill-rule:nonzero;"/><path d="M1328.236,1136c-15.56,-28.897 -20.883,-55.497 -20.883,-79.109c0,-52.116 25.713,-96.967 71.465,-129.012c43.385,-30.387 108.555,-47.97 165.848,-47.97c50.679,-0 71.777,15.701 86.253,29.346c10.626,10.016 19.546,22.294 26.223,39.464l0.027,0.07l21.368,55.083c7.054,15.85 8.208,28.077 8.208,40.553c0,21.164 -5.497,40.53 -15.95,56.366c14.623,27.86 19.939,53.843 19.939,76.262c0,53.036 -27.054,99.417 -75.307,132.317c-45.866,31.272 -114.232,49.152 -171.479,49.152l-5.485,0c-33.046,0 -53.624,-9.789 -69.366,-21.866c-14.133,-10.842 -26.462,-25.291 -34.675,-47.861l-21.67,-57.13c-0.438,-1.153 -0.851,-2.316 -1.242,-3.486c-4.022,-12.065 -5.653,-24.635 -5.653,-32.678c0,-23.397 8.797,-43.572 22.379,-59.503Z" style="fill:#fff;fill-rule:nonzero;"/><path d="M1946,1224.631c-5.77,20.933 -14.691,48.9 -22.159,65.828c-0.588,1.332 -1.208,2.651 -1.859,3.953c-17.076,34.152 -44.174,65.108 -106.075,65.108l-5.983,0c-176.602,0 -260.747,-125.541 -260.747,-243.795c0,-112.902 74.752,-236.814 254.764,-236.814c62.081,0 105.716,18.738 137.292,42.717c75.567,57.385 82.569,154.882 82.569,174.651c0,30.708 -8.035,58.263 -24.224,81.962c-12.042,17.629 -28.902,34.003 -53.578,46.389Z" style="fill:#fff;fill-rule:nonzero;"/></g></g><path d="M459.026,976.722c58.309,76.236 95.665,120.996 115.469,153.57c22.538,37.072 29.979,67.062 29.661,95.804c-0.307,27.798 -8.216,56.309 -28.337,91.236c-14.759,25.619 -38.583,61.64 -80.192,83.381c-39.469,20.622 -98.751,33.986 -190.266,-5.255c-108.811,-46.658 -125.25,-161.942 -103.663,-236.795c11.482,-39.814 34.725,-67.58 55.951,-82.657c-34.597,-38.162 -90.692,-101.668 -117.768,-138.919c-27.976,-38.49 -32.394,-72.992 -31.678,-84.673c0.803,-13.098 4.437,-25.867 10.653,-37.424c23.667,-44.003 27.344,-41.563 103.561,-93.223c13.479,-9.136 52.283,-22.126 103.837,-20.652c45.865,1.311 108.063,9.119 149.648,18.974c28.613,6.781 50.446,16.122 62.223,23.627c26.56,16.925 42.442,46.413 41.958,77.903c-0.484,31.49 -17.264,60.477 -44.332,76.577c-12.512,7.443 -17.498,15.418 -27.047,26.344c-11.925,13.646 -26.778,30.326 -49.68,52.183Z" style="fill:#fff;"/><path d="M201.396,58.458c2.256,0.075 5.241,0.307 8.864,0.882c8.069,-5.333 16.678,-9.819 25.663,-12.811c34.214,-11.392 83.178,-15.427 147.262,27.921c60.148,40.685 84.297,104.061 73.371,176.949c-11.027,73.554 -65.764,161.842 -152.662,222.905c-22.802,16.023 -51.703,20.677 -78.383,12.622c-8.833,-2.667 -17.098,-6.629 -24.57,-11.678c-17.53,-6.412 -63.72,-24.422 -86.198,-43.807c-103.882,-89.59 -109.019,-124.871 -114.433,-196.287c-3.002,-39.593 15.796,-94.182 54.398,-131.986c38.011,-37.226 90.592,-57.653 146.688,-44.709Zm-50.119,61.859l-0.129,0.013c-0.583,0.882 -2.196,3.538 -2.196,3.538c0,0 0.802,-1.292 2.325,-3.551Z" style="fill:#fff;"/></g><g><g><ellipse cx="1248.561" cy="803.829" rx="750.438" ry="713.107" style="fill:#3e404c;stroke:#000;stroke-width:30.36px;"/><ellipse cx="1248.561" cy="838.268" rx="616.038" ry="611.111" style="fill:none;stroke:#fff;stroke-width:2.74px;"/><ellipse cx="1211.079" cy="838.268" rx="552.832" ry="548.411" style="fill:none;stroke:#fff;stroke-width:2.74px;"/><ellipse cx="1279.755" cy="807.976" rx="664.723" ry="651.835" style="fill:none;stroke:#fff;stroke-width:2.74px;"/><path d="M1259.469,120.369l0,687.606l714.041,0c0,379.755 -319.687,687.606 -714.041,687.606c-394.09,0 -714.041,-308.106 -714.041,-687.606c0,-379.755 319.687,-687.606 714.041,-687.606Z" style="fill:#3e404c;"/><ellipse cx="1248.561" cy="803.829" rx="202.486" ry="192.414" style="fill:#f20d5e;"/><ellipse cx="1248.561" cy="803.829" rx="37.482" ry="34.439"/></g><g id="Contour"><g><path d="M777.699,727.107l-0.019,0.008l-64.451,30.529c-13.842,6.777 -27.775,9.788 -41.613,9.788c-26.426,0 -50.911,-9.245 -69.563,-37.744c-5.991,-8.72 -12.792,-18.904 -20.013,-29.926c-8.126,35.43 -38.609,60.69 -75.96,60.69l-0.997,0c-1.187,-0 -2.374,-0.031 -3.559,-0.093l-104.092,-5.453c-38.756,-1.628 -74.572,-35.18 -74.572,-77.952l0,-0.997c-0,-1.146 0.029,-2.292 0.087,-3.436l19.944,-394.397c0.056,-1.113 0.14,-2.225 0.251,-3.334c3.809,-38.086 39.591,-70.745 77.676,-70.745l0.997,0c1.103,0 2.205,0.027 3.306,0.08l81.198,3.951c22.131,-5.696 44.592,-8.518 66.573,-8.518c129.399,0 243.052,94.911 243.052,223.607c0,26.368 -5.489,68.297 -26.741,107.84c16.375,36.662 29.011,73.307 34.349,91.175c4.78,15.998 5.356,26.717 5.356,29.346c0,26.334 -7.482,56.811 -51.209,75.582Zm-223.606,-293.083l8.725,-10.6l-4.894,-7.855c-3.745,3.229 -6.205,7.502 -6.205,11.583c0,2.184 1.068,4.66 2.375,6.872Z" style="fill:#fff;fill-rule:nonzero;"/><path d="M853.175,897.658l-0.031,-0.012l-71.419,-27.582c-0.253,-0.098 -0.505,-0.197 -0.757,-0.297c-42.562,-17.025 -53.741,-46.767 -53.741,-75.142c0,-16.11 4.746,-32.942 15.983,-49.056l56.357,-83.638l-81.489,-184.33c-0.104,-0.236 -0.207,-0.472 -0.308,-0.709c-5.887,-13.737 -7.995,-25.966 -7.995,-35.778c0,-37.005 23.56,-67.997 62.871,-78.907l78.624,-23.241c0.923,-0.273 1.852,-0.526 2.785,-0.759c7.46,-1.865 15.026,-3.029 22.486,-3.029c36.77,0 66.883,21.65 81.443,56.086l8.203,18.544c4.481,-7.016 8.857,-13.883 13.092,-20.537c16.867,-27.606 39.062,-40.132 69.779,-40.132c10.827,0 27.228,2.199 45.126,12.319l72.507,37.47c35.782,18.067 46.141,44.609 46.141,71.604c0,3.866 -0.574,18.525 -11.058,43.027c-16.979,39.685 -75.56,150.27 -246.269,357.709c-0.71,0.862 -1.441,1.707 -2.192,2.534c-20.544,22.598 -41.151,30.748 -65.804,30.748c-9.568,0 -21.069,-1.443 -34.337,-6.891Z" style="fill:#fff;fill-rule:nonzero;"/><path d="M1147.554,345.488l0.162,-2.349c0.021,-0.305 0.045,-0.61 0.07,-0.915c1.389,-16.672 7.811,-37.595 22.372,-52.934c12.125,-12.773 29.814,-24.915 59.895,-24.915l1.994,0c1.079,-0 2.158,0.026 3.236,0.077l94.236,4.487c0.253,0.012 0.506,0.026 0.759,0.04c26.126,1.537 44.111,12.7 56.79,27.299c11.446,13.18 19.722,31.001 19.722,54.586c0,1.079 -0.026,2.158 -0.077,3.236c-0.07,1.464 -0.142,2.934 -0.216,4.407c23.719,13.279 40.68,38.773 40.68,69.142c0,1.637 -0.059,3.273 -0.177,4.906l-5.983,82.768c-0.045,0.622 -0.099,1.244 -0.161,1.865c-1.911,19.109 -10.912,36.852 -24.699,49.789c13.15,13.731 20.55,30.976 20.55,50.64c0,6.281 -1.348,16.084 -4.489,25.506c-0.5,1.499 -1.051,2.98 -1.654,4.44l-25.927,62.824l-0.186,0.447c-17.898,42.508 -45.106,56.097 -78.665,56.097c-6.676,0 -13.267,-0.637 -19.883,-2.235c-47.805,-9.837 -82.244,-28.358 -107.884,-56.572c-26.144,-28.769 -44.064,-70.786 -51.598,-134.904c-29.506,-11.715 -51.222,-41.497 -51.222,-73.773c0,-1.637 0.059,-3.273 0.177,-4.906l5.983,-82.768c0.03,-0.418 0.064,-0.837 0.102,-1.254c2.6,-28.596 20.207,-53.503 46.094,-65.034Z" style="fill:#fff;fill-rule:nonzero;"/><path d="M904.952,438.751c-54.918,-101.991 -85.215,-201.594 -85.215,-201.594c-5.847,-19.175 -2.94,-39.953 7.944,-56.788c10.884,-16.835 28.639,-28.013 48.524,-30.552c0,0 74.813,-9.276 112.328,-8.246c19.426,0.533 37.696,9.347 50.205,24.219c12.509,14.872 18.062,34.382 15.259,53.612c-12.372,84.883 -17.985,190.397 -22.574,205.468c-6.65,21.838 -19.207,32.005 -25.931,36.888l-18.726,9.604l-16.953,3.312l-19.081,-1.418l-16.171,-5.726l-13.472,-8.904l-11.055,-11.841c-1.879,-2.557 -3.577,-5.242 -5.081,-8.035Z" style="fill:#fff;"/><path d="M953.455,382.99c6.478,-63.534 24.046,-116.92 24.046,-116.92c6.462,-19.752 21.596,-35.469 41.09,-42.671c19.495,-7.202 41.212,-5.1 58.963,5.708c0,0 38.162,23.479 55.523,37.591c15.215,12.369 24.355,30.7 25.077,50.295c0.721,19.595 -7.046,38.549 -21.311,52.003c-33.019,31.141 -69.973,72.877 -76.975,77.525c-8.007,5.315 -15.025,7.809 -20.087,9.215l-24.442,2.238l-15.592,-3.253l-16.925,-8.415l-12.586,-11.121l-8.813,-12.582l-5.703,-13.963l-2.551,-15.754c-0.145,-3.301 -0.05,-6.609 0.285,-9.896Z" style="fill:#fff;"/><path d="M1625.18,340.356c107.46,18.317 185.625,96.017 187.468,217.389c0.151,9.864 -1.685,18.668 5.751,24.587c0.399,0.318 0.795,0.64 1.187,0.966c14.117,11.764 32.959,39.354 32.959,65.235c0,17.271 -4.069,39.413 -28.248,60.138c-0.365,0.313 -0.733,0.621 -1.104,0.926l-47.367,38.891l-0.09,0.074c-21.057,17.228 -40.817,21.364 -58.045,21.364c-1.915,0 -57.586,-7.18 -103.192,-46.64c-13.737,23.474 -39.197,38.164 -67.331,38.164l-99.721,0c-44.864,0 -78.513,-33.648 -78.513,-78.513l0,-407.859c0,-41.126 33.648,-78.513 78.513,-78.513l99.721,0c41.983,0 78.014,36.53 78.014,78.513l-0,65.278Z" style="fill:#fff;fill-rule:nonzero;"/><path d="M2141.947,734.557c-12.765,13.359 -30.35,21.824 -50.127,23.622c-0.835,0.076 -1.671,0.136 -2.507,0.181l-92.741,4.986c-1.217,0.065 -2.435,0.098 -3.653,0.098l-0.997,0c-8.888,0 -17.61,-1.609 -25.811,-4.608c-8.376,3.922 -17.603,6.433 -27.363,7.32c-0.962,0.087 -1.925,0.154 -2.889,0.201l-93.239,4.487c-1.09,0.052 -2.18,0.079 -3.271,0.079l-0.997,-0c-38.241,-0 -73.412,-29.789 -77.236,-71.854c-0.088,-0.963 -0.155,-1.927 -0.201,-2.893l-12.465,-259.275c-0.052,-1.088 -0.079,-2.178 -0.078,-3.267l-0,-0.997c0,-42.815 31.324,-73.784 70.246,-77.676c1.122,-0.112 2.246,-0.196 3.373,-0.253l21.166,-1.057c29.545,-8.874 58.527,-12.988 86.44,-12.988c21.7,0 42.37,2.477 62.042,7.486c31.952,-9.63 62.535,-13.968 91.03,-13.968c125.829,0 217.581,79.861 225.473,209.962c0.647,10.549 -2.54,19.992 5.088,25.997c0.496,0.39 0.986,0.788 1.471,1.192c13.91,11.592 33.457,39.733 33.457,65.235c0,17.01 -5.105,37.666 -23,55.294c-0.247,0.268 -0.497,0.536 -0.75,0.804c-7.294,7.723 -43.722,42.522 -43.722,42.522c-0.386,0.368 -0.776,0.731 -1.17,1.089c-21.78,19.8 -40.928,24.675 -60.728,24.675c-5.538,0 -40.834,-3.974 -76.84,-26.394Z" style="fill:#fff;fill-rule:nonzero;"/></g><g><path d="M579.725,1228.95l-18.448,-355.007c-0.061,-1.176 -0.092,-2.353 -0.092,-3.531l0,-0.997c0,-41.393 32.354,-77.498 76.678,-78.964l46.354,-2.797c33.705,-11.867 75.09,-19.189 117.029,-19.189c171.716,0 236.072,103.668 236.072,195.685c0,28.463 -6.877,54.372 -18.467,77.22c3.089,5.358 5.937,11.087 8.508,17.206c12.557,28.964 17.936,56.562 17.936,81.083c-0,55.278 -25.009,101.112 -67.099,135.371c-49.347,40.167 -125.634,63.305 -201.881,63.305c-25.122,0 -91.156,-5.922 -131.948,-25.234c-36.149,-17.114 -57.449,-44.522 -63.412,-74.338c-0.647,-3.237 -1.058,-6.517 -1.23,-9.813Zm199.289,-256.723c-0.28,1.3 -0.437,2.602 -0.437,3.89c0,3.409 1.935,7.549 4.399,11.44l5.263,-6.916l-9.225,-8.414Zm9.854,178.251l13.56,-16.183l-10.899,-11.93c-2.964,5.01 -5.473,10.629 -5.473,15.299c0,4.78 1.055,9.013 2.812,12.814Z" style="fill:#fff;fill-rule:nonzero;"/><path d="M1404.334,1131.35c19.378,15.463 31.369,37.723 31.369,60.663c0,7.585 -1.094,19.747 -8.679,34.917c-0.1,0.2 -0.201,0.4 -0.303,0.599l-30.914,60.331c-0.138,0.27 -0.279,0.539 -0.421,0.808c-19.775,37.353 -47.526,49.17 -76.09,49.17c-6.06,0 -38.996,-5.224 -72.727,-22.825c-23.707,7.447 -47.479,10.859 -70.373,10.859c-121.101,0 -223.108,-95.389 -223.108,-212.139c0,-88.176 63.656,-214.133 209.147,-214.133c23.915,0 47.488,3.685 68.703,9.832c4.299,-0.564 8.817,-0.857 13.567,-0.857l2.493,0c1.962,-0 3.923,0.085 5.878,0.254l85.857,7.445c28.23,2.233 44.841,13.685 55.726,24.57c16.55,16.55 23.295,36.854 23.295,56.714l0,2.493c-0,3.464 -0.265,6.923 -0.791,10.346c-6.389,41.531 -13.17,81.192 -13.17,111.313c0,2.906 0.257,6.527 0.541,9.64Zm-227.579,-5.561c2.606,1.033 5.421,1.637 8.417,1.637c9.622,0 19.179,-4.409 19.179,-12.198c0,-7.565 -4.573,-14.192 -12.395,-15.81l-15.201,26.372Z" style="fill:#fff;fill-rule:nonzero;"/><path d="M1355.542,1137.668c-18.99,-29.772 -25.507,-56.923 -25.507,-80.777c0,-44.719 22.538,-82.939 61.796,-110.435c39.958,-27.987 100.069,-43.866 152.836,-43.866c41.383,-0 58.876,12.028 70.696,23.17c8.386,7.904 15.371,17.63 20.641,31.18l0.021,0.053l21.617,55.724c5.55,12.408 6.424,21.965 6.424,31.709c0,21.347 -7.344,40.201 -20.987,53.731c18.299,28.974 24.976,55.966 24.976,78.898c0,45.657 -23.864,85.255 -65.404,113.578c-42.429,28.929 -105.745,45.21 -158.702,45.21l-5.485,0c-26.424,0 -42.973,-7.523 -55.561,-17.18c-11.125,-8.535 -20.756,-19.963 -27.214,-37.751l-21.73,-57.288c-0.328,-0.865 -0.639,-1.737 -0.931,-2.615c-3.141,-9.422 -4.489,-19.225 -4.489,-25.506c0,-25.589 10.14,-44.544 27.003,-57.835Z" style="fill:#fff;fill-rule:nonzero;"/><path d="M1928.571,1207.742c-0.612,4.402 -1.694,9.838 -3.565,16.03c-4.112,13.61 -15,41.857 -21.915,57.532c-0.441,0.999 -0.906,1.988 -1.394,2.965c-13.804,27.609 -35.748,52.571 -85.789,52.571l-5.983,0c-160.743,0 -238.066,-113.48 -238.066,-221.114c0,-102.498 68.659,-214.133 232.083,-214.133c55.834,0 95.177,16.533 123.576,38.099c67.681,51.396 73.605,138.882 73.605,156.588c0,25.897 -6.619,49.183 -20.271,69.169c-11.267,16.494 -27.619,31.545 -52.28,42.293Z" style="fill:#fff;fill-rule:nonzero;"/></g></g><path d="M1883.99,1247.544c190.578,75.093 281.604,128.446 281.604,128.446c0,0 -65.605,100.736 -114.152,140.946c-61.164,-87.878 -66.719,-84.63 -120.766,-175.963c-10.941,-18.49 -51.514,-72.478 -46.686,-93.429Z" style="fill:#d92626;stroke:#000;stroke-width:30.36px;"/><g><g><path d="M749.897,664.987c8.476,-3.49 10.969,-8.476 10.969,-13.462c0,-4.487 -21.939,-74.292 -50.359,-126.646c31.412,-32.908 37.395,-77.284 37.395,-101.715c0,-91.245 -83.267,-155.565 -175.01,-155.565c-19.446,0 -39.39,2.992 -58.835,8.975l-92.242,-4.487l-0.997,0c-4.986,0 -9.473,4.487 -9.972,9.473l-19.944,394.397l0,0.997c0,5.485 4.487,9.972 9.473,9.972l104.707,5.485l0.997,0c5.485,0 9.473,-4.487 9.972,-9.972l5.983,-117.671c18.947,5.485 39.39,7.978 60.331,7.978c23.933,39.39 55.345,88.752 76.287,119.167c3.49,5.485 7.978,7.479 12.964,7.479c3.989,0 7.978,-0.997 11.967,-2.992l66.314,-31.412Zm-217.89,-290.188c7.978,-1.994 15.955,-2.992 22.936,-2.992c36.897,0 64.819,22.936 64.819,55.345c0,22.936 -14.46,52.354 -54.847,52.354c-13.462,0 -27.423,-3.49 -37.894,-7.978l4.986,-96.729Z" style="fill:url(#_Linear1);fill-rule:nonzero;stroke:#000;stroke-width:27.52px;stroke-linecap:butt;stroke-miterlimit:2;"/><path d="M878.537,834.513c3.49,1.496 6.482,1.994 8.975,1.994c5.983,0 10.471,-2.992 15.457,-8.476c203.929,-247.807 241.823,-350.021 241.823,-357.5c0,-4.487 -2.992,-7.978 -8.975,-10.969l-74.292,-38.393c-4.986,-2.992 -9.473,-3.989 -12.465,-3.989c-5.485,0 -8.975,2.992 -11.967,7.978c-24.432,38.393 -52.852,82.768 -82.27,127.144l-59.334,-134.125c-3.49,-8.476 -9.972,-14.958 -18.947,-14.958c-1.994,0 -3.989,0.499 -5.983,0.997l-79.278,23.434c-7.479,1.994 -13.462,6.482 -13.462,13.462c0,2.493 0.997,5.485 2.493,8.975l93.239,210.91c1.496,2.992 2.493,5.485 3.989,6.98l-78.281,116.175c-2.493,3.49 -3.989,6.98 -3.989,10.471c0,4.986 3.49,8.975 10.969,11.967l72.298,27.922Z" style="fill:url(#_Linear2);fill-rule:nonzero;stroke:#000;stroke-width:27.52px;stroke-linecap:butt;stroke-miterlimit:2;"/><path d="M1367.668,621.608c0.499,-1.496 0.997,-2.992 0.997,-3.989c0,-5.485 -5.983,-7.479 -11.468,-9.972c-21.939,-9.473 -27.922,-43.877 -27.922,-89.25l32.908,1.496l0.997,0c5.485,0 9.473,-4.487 9.972,-9.473l5.983,-82.768c0,-5.983 -4.487,-10.969 -9.972,-10.969l-34.404,-1.994c1.496,-20.941 2.992,-42.88 3.989,-63.821c0,-8.476 -3.989,-13.462 -12.465,-13.961l-94.236,-4.487l-1.994,0c-12.964,0 -13.961,9.473 -14.46,15.457c-1.496,21.44 -2.493,41.883 -3.49,60.83l-31.911,-1.994c-5.983,0 -10.471,4.487 -10.969,9.972l-5.983,82.768c0,5.485 4.487,10.471 9.972,10.969l37.395,1.994c2.493,126.147 30.415,170.024 110.69,185.98c1.496,0.499 2.992,0.499 4.487,0.499c7.479,0 11.967,-4.986 15.955,-14.46l25.927,-62.824Z" style="fill:url(#_Linear3);fill-rule:nonzero;stroke:#000;stroke-width:27.52px;stroke-linecap:butt;stroke-miterlimit:2;"/><path d="M964.861,406.492c-51.544,-95.724 -80.04,-189.181 -80.04,-189.181c0,0 67.825,-8.658 101.846,-7.724c-13.07,89.667 -16.814,203.696 -21.805,196.904Z" style="fill:url(#_Linear4);stroke:#000;stroke-width:16.86px;"/><path d="M1021.146,389.892c5.687,-55.779 21.025,-102.666 21.025,-102.666c0,0 33.014,20.1 47.987,32.271c-32.834,30.967 -68.817,74.815 -69.012,70.395Z" style="fill:url(#_Linear5);stroke:#000;stroke-width:16.86px;"/><path d="M1780.015,657.009c3.49,-2.992 4.487,-5.983 4.487,-8.476c0,-5.485 -5.485,-10.471 -8.476,-12.964c-24.432,-19.446 -30.914,-44.376 -31.412,-76.785c-1.496,-98.724 -76.287,-154.568 -170.024,-154.568c-5.485,0 -11.468,0 -17.451,0.499l0,-129.637c0,-5.485 -4.487,-10.471 -9.972,-10.471l-99.721,0c-5.983,0 -10.471,4.986 -10.471,10.471l0,407.859c0,5.983 4.487,10.471 10.471,10.471l99.721,0c5.485,0 9.972,-4.487 9.972,-10.471l0,-180.994l2.493,0c35.9,0 63.821,21.44 63.821,81.771c0,101.217 92.242,118.169 94.236,118.169c4.487,0 9.473,-1.496 14.958,-5.983l47.367,-38.891Z" style="fill:url(#_Linear6);fill-rule:nonzero;stroke:#000;stroke-width:27.52px;stroke-linecap:butt;stroke-miterlimit:2;"/><path d="M2085.66,690.416c5.485,-0.499 9.473,-4.986 9.473,-10.969l-8.975,-178.002c28.42,3.989 38.891,23.933 41.384,77.782c5.983,98.225 84.264,113.682 91.245,113.682c4.986,0 9.473,-1.994 14.958,-6.98c0,0 42.381,-40.387 42.381,-41.384c2.992,-2.493 3.989,-5.485 3.989,-7.978c0,-5.485 -5.983,-10.471 -8.975,-12.964c-23.434,-18.448 -28.919,-42.88 -30.914,-75.289c-5.485,-90.746 -69.805,-146.091 -157.559,-146.091c-27.922,0 -58.337,5.485 -90.248,17.451c-19.446,-7.479 -40.387,-10.969 -62.824,-10.969c-23.933,0 -48.863,3.989 -74.292,12.465l-29.916,1.496c-4.986,0.499 -8.975,4.487 -8.975,9.972l0,0.997l12.465,259.275c0.499,5.485 4.487,9.972 9.473,9.972l0.997,0l93.239,-4.487c5.485,-0.499 9.473,-4.986 9.473,-10.969l-8.975,-180.994c31.412,2.493 41.883,23.434 44.376,73.794l4.986,105.206c0.499,5.485 4.487,9.972 9.473,9.972l0.997,0l92.741,-4.986Z" style="fill:url(#_Linear7);fill-rule:nonzero;stroke:#000;stroke-width:27.52px;stroke-linecap:butt;stroke-miterlimit:2;"/></g><g><path d="M647.676,1225.419c7.479,37.395 100.718,44.874 128.64,44.874c99.721,0 200.938,-45.872 200.938,-130.635c0,-16.454 -3.989,-34.902 -12.465,-54.348c-7.479,-17.95 -18.947,-28.919 -32.908,-40.387c21.44,-19.944 37.395,-47.367 37.395,-80.774c0,-63.323 -49.861,-127.643 -168.03,-127.643c-37.395,0 -74.292,6.98 -102.713,18.448l-57.838,3.49c-6.482,0 -11.468,4.986 -11.468,10.969l0,0.997l18.448,355.007Zm110.192,-290.687c8.975,-1.994 18.448,-2.992 27.922,-2.992c42.88,0 60.83,21.44 60.83,44.376c0,42.88 -59.833,45.373 -84.264,46.37l-4.487,-87.755Zm8.476,165.038c7.978,-0.997 16.953,-1.496 26.426,-1.496c39.888,0 61.328,13.462 61.328,39.39c0,24.93 -26.925,40.886 -63.821,40.886c-6.482,0 -12.964,-0.499 -19.944,-1.496l-3.989,-77.284Z" style="fill:url(#_Linear8);fill-rule:nonzero;stroke:#000;stroke-width:27.52px;stroke-linecap:butt;stroke-miterlimit:2;"/><path d="M1366.166,1196.5c0.997,-1.994 1.496,-3.49 1.496,-4.487c0,-4.986 -5.485,-7.978 -10.471,-10.471c-15.955,-8.476 -21.44,-29.916 -21.44,-59.833c0,-32.908 6.98,-76.287 13.961,-121.66l0,-2.493c0,-5.983 -3.49,-12.465 -16.454,-13.462l-86.259,-7.479l-2.493,0c-5.983,0 -10.471,1.496 -13.462,4.986c-19.446,-8.476 -43.877,-13.961 -68.808,-13.961c-98.724,0 -141.105,86.259 -141.105,146.091c0,80.275 71.799,144.097 155.066,144.097c25.429,0 52.354,-5.983 78.281,-19.446c24.93,23.434 59.833,31.412 64.819,31.412c6.482,0 11.468,-4.487 15.955,-12.964l30.914,-60.331Zm-146.091,-36.398c-11.468,4.986 -22.437,6.98 -31.911,6.98c-32.409,0 -51.855,-23.933 -51.855,-51.855c0,-25.429 17.451,-55.844 48.863,-55.844c14.46,0 27.922,6.98 33.905,16.953c-0.997,14.958 -1.496,28.42 -1.496,41.384c0,15.457 0.997,29.418 2.493,42.381Z" style="fill:url(#_Linear9);fill-rule:nonzero;stroke:#000;stroke-width:27.52px;stroke-linecap:butt;stroke-miterlimit:2;"/><path d="M1443.948,1267.801c66.813,0 156.063,-31.911 156.063,-90.746c0,-18.947 -9.972,-41.384 -32.908,-66.314c-18.947,-20.941 -26.426,-30.415 -26.426,-38.891c0,-9.972 11.468,-19.944 41.384,-19.944l1.994,0c6.482,0 11.967,-1.994 11.967,-7.479c0,-1.496 0,-2.992 -0.997,-4.986l-22.437,-57.838c-3.49,-8.975 -8.476,-10.969 -27.922,-10.969c-65.317,0 -146.59,29.916 -146.59,86.259c0,18.947 8.975,40.387 30.914,65.317l13.462,14.958c6.98,8.975 13.462,16.953 13.462,23.434c0,11.967 -13.961,25.927 -43.379,26.426c-5.983,0 -15.955,0.997 -15.955,8.476c0,0.997 0.499,2.493 0.997,3.989l21.939,57.838c2.992,8.476 7.978,10.471 18.947,10.471l5.485,0Z" style="fill:url(#_Linear10);fill-rule:nonzero;stroke:#000;stroke-width:27.52px;stroke-linecap:butt;stroke-miterlimit:2;"/><path d="M1815.907,1268.798c14.46,0 20.941,-6.98 24.93,-14.958c7.479,-16.953 20.443,-50.858 20.443,-55.844c0,-8.476 -8.476,-12.964 -15.457,-12.964l-0.997,0c-3.49,0.499 -7.479,0.499 -10.969,0.499c-62.326,0 -88.253,-39.888 -88.253,-75.289c0,-30.914 19.944,-51.855 43.877,-51.855c20.941,0 30.415,15.955 30.415,20.443c0,6.98 -3.49,7.978 -29.418,13.961c-6.482,1.496 -10.471,3.989 -10.471,9.473c0,1.994 9.473,34.404 15.457,50.858c1.994,5.983 4.487,9.473 12.465,9.473c25.927,-0.997 62.824,-6.482 86.259,-14.46c29.418,-9.972 38.891,-28.919 38.891,-51.855c0,-16.454 -5.485,-126.646 -129.139,-126.646c-113.682,0 -164.041,74.791 -164.041,146.091c0,75.788 56.841,153.072 170.024,153.072l5.983,0Z" style="fill:url(#_Linear11);fill-rule:nonzero;stroke:#000;stroke-width:27.52px;stroke-linecap:butt;stroke-miterlimit:2;"/></g></g><path d="M198.756,857.962c16.373,-30.442 21.834,-25.359 74.563,-61.099c21.474,-14.555 185.402,3.829 216.053,23.361c-36.593,21.767 -40.72,41.654 -96.522,94.224c-55.153,51.959 -49.827,59.146 -41.184,70.711c151.583,202.832 187.393,214.24 145.543,286.886c-16.593,28.803 -47.624,86.543 -156.093,40.031c-83.292,-35.715 -58.838,-149.32 -30.777,-162.32c16.618,-7.699 8.531,-17.291 64.218,-25.047c3.709,-0.517 -2.893,-0.827 40.078,-4.721c-6.089,-5.096 -41.994,-55.7 -64.871,-77.777c-7.748,-7.478 -152.179,-165.137 -151.008,-184.251Z" style="fill:#3ae;stroke:#000;stroke-width:19.7px;"/><path d="M251.734,400.075c-3.674,-9.423 -50.377,-13.739 -77.739,-37.337c-72.292,-62.346 -79.453,-84.745 -83.221,-134.443c-2.786,-36.747 43.567,-97.575 96.956,-79.518c2.93,0.991 15.081,-2.574 39.108,21.571c5.672,-8.583 30.835,-71.268 105.518,-20.751c74.45,50.359 25.964,175.581 -80.622,250.479Z" style="fill:#e12885;stroke:#000;stroke-width:33.2px;"/></g></g><defs><linearGradient id="_Linear1" x1="0" y1="0" x2="1" y2="0" gradientUnits="userSpaceOnUse" gradientTransform="matrix(-22.424669,1304.031427,-1304.031427,-22.424669,1239.917356,152.14234)"><stop offset="0" style="stop-color:#69bac9;stop-opacity:1"/><stop offset="1" style="stop-color:#004682;stop-opacity:1"/></linearGradient><linearGradient id="_Linear2" x1="0" y1="0" x2="1" y2="0" gradientUnits="userSpaceOnUse" gradientTransform="matrix(-22.424669,1304.031427,-1304.031427,-22.424669,1239.917356,152.14234)"><stop offset="0" style="stop-color:#69bac9;stop-opacity:1"/><stop offset="1" style="stop-color:#004682;stop-opacity:1"/></linearGradient><linearGradient id="_Linear3" x1="0" y1="0" x2="1" y2="0" gradientUnits="userSpaceOnUse" gradientTransform="matrix(-22.424669,1304.031427,-1304.031427,-22.424669,1239.917356,152.14234)"><stop offset="0" style="stop-color:#69bac9;stop-opacity:1"/><stop offset="1" style="stop-color:#004682;stop-opacity:1"/></linearGradient><linearGradient id="_Linear4" x1="0" y1="0" x2="1" y2="0" gradientUnits="userSpaceOnUse" gradientTransform="matrix(50.922925,414.179793,-414.179793,50.922925,935.743464,103.741396)"><stop offset="0" style="stop-color:#a159a6;stop-opacity:1"/><stop offset="1" style="stop-color:#590495;stop-opacity:1"/></linearGradient><linearGradient id="_Linear5" x1="0" y1="0" x2="1" y2="0" gradientUnits="userSpaceOnUse" gradientTransform="matrix(50.922925,414.179793,-414.179793,50.922925,935.743464,103.741396)"><stop offset="0" style="stop-color:#a159a6;stop-opacity:1"/><stop offset="1" style="stop-color:#590495;stop-opacity:1"/></linearGradient><linearGradient id="_Linear6" x1="0" y1="0" x2="1" y2="0" gradientUnits="userSpaceOnUse" gradientTransform="matrix(-22.424669,1304.031427,-1304.031427,-22.424669,1239.917356,152.14234)"><stop offset="0" style="stop-color:#69bac9;stop-opacity:1"/><stop offset="1" style="stop-color:#004682;stop-opacity:1"/></linearGradient><linearGradient id="_Linear7" x1="0" y1="0" x2="1" y2="0" gradientUnits="userSpaceOnUse" gradientTransform="matrix(-22.424669,1304.031427,-1304.031427,-22.424669,1239.917356,152.14234)"><stop offset="0" style="stop-color:#69bac9;stop-opacity:1"/><stop offset="1" style="stop-color:#004682;stop-opacity:1"/></linearGradient><linearGradient id="_Linear8" x1="0" y1="0" x2="1" y2="0" gradientUnits="userSpaceOnUse" gradientTransform="matrix(0,647.352824,-647.352824,0,1281.153328,836.507278)"><stop offset="0" style="stop-color:#137a7f;stop-opacity:1"/><stop offset="1" style="stop-color:#004760;stop-opacity:1"/></linearGradient><linearGradient id="_Linear9" x1="0" y1="0" x2="1" y2="0" gradientUnits="userSpaceOnUse" gradientTransform="matrix(0,647.352824,-647.352824,0,1281.153328,836.507278)"><stop offset="0" style="stop-color:#137a7f;stop-opacity:1"/><stop offset="1" style="stop-color:#004760;stop-opacity:1"/></linearGradient><linearGradient id="_Linear10" x1="0" y1="0" x2="1" y2="0" gradientUnits="userSpaceOnUse" gradientTransform="matrix(0,647.352824,-647.352824,0,1281.153328,836.507278)"><stop offset="0" style="stop-color:#137a7f;stop-opacity:1"/><stop offset="1" style="stop-color:#004760;stop-opacity:1"/></linearGradient><linearGradient id="_Linear11" x1="0" y1="0" x2="1" y2="0" gradientUnits="userSpaceOnUse" gradientTransform="matrix(0,647.352824,-647.352824,0,1281.153328,836.507278)"><stop offset="0" style="stop-color:#137a7f;stop-opacity:1"/><stop offset="1" style="stop-color:#004760;stop-opacity:1"/></linearGradient></defs></svg>