<?xml version="1.0" encoding="UTF-8" standalone="no"?><!DOCTYPE svg PUBLIC "-//W3C//DTD SVG 1.1//EN" "http://www.w3.org/Graphics/SVG/1.1/DTD/svg11.dtd"><svg width="100%" height="100%" viewBox="0 0 259 297" version="1.1" xmlns="http://www.w3.org/2000/svg" xmlns:xlink="http://www.w3.org/1999/xlink" xml:space="preserve" xmlns:serif="http://www.serif.com/" style="fill-rule:evenodd;clip-rule:evenodd;stroke-linejoin:round;stroke-miterlimit:2;"><g><path d="M-33.94,-263.247c2.979,-0.478 10.964,-1.114 22.701,2.779c4.923,-8.572 12.208,-17.757 23.038,-23.966c15.338,-8.793 38.47,-13.28 73.472,1.337c33.913,14.162 51.343,43.783 53.219,81.037c2.381,47.273 -22.318,108.522 -68.84,157.554c-4.571,4.818 -11.103,7.268 -17.715,6.644c-3.582,-0.338 -6.973,-1.558 -9.899,-3.494c-6.602,-0.636 -44.152,-4.664 -63.81,-15.726c-73.49,-41.352 -82.554,-60.469 -94.501,-102.844c-5.272,-18.698 -0.287,-46.444 14.567,-68.31c14.884,-21.909 38.606,-37.526 67.766,-35.012Z" style="fill:#e12885;"/></g><g><path d="M-43.417,-278.711c2.979,-0.478 10.964,-1.114 22.701,2.779c4.923,-8.572 12.208,-17.757 23.038,-23.966c15.338,-8.793 38.47,-13.28 73.472,1.337c33.913,14.162 51.343,43.783 53.219,81.037c2.381,47.273 -22.318,108.522 -68.84,157.554c-4.571,4.818 -11.103,7.268 -17.715,6.644c-3.582,-0.338 -6.973,-1.558 -9.899,-3.494c-6.602,-0.636 -44.152,-4.664 -63.81,-15.726c-73.49,-41.352 -82.554,-60.469 -94.501,-102.844c-5.272,-18.698 -0.287,-46.444 14.567,-68.31c14.884,-21.909 38.606,-37.526 67.766,-35.012Z" style="fill:#fff;"/></g><g><path d="M71.473,141.389c1.208,-0.282 4.971,-0.929 11.696,-0.125c-4.459,-17.923 -16.032,-67.31 -18.968,-91.974c-1.186,-9.965 -0.783,-17.55 0.063,-21.43c1.203,-5.519 3.442,-9.467 5.53,-12.243c2.609,-3.471 5.981,-6.297 9.854,-8.26c18.354,-9.301 19.54,-7.038 59.296,-7.276c6.179,-0.037 21.079,4.546 37.834,14.966c18.239,11.342 41.589,28.855 56.124,42.214c8.731,8.025 14.73,15.39 17.373,20.153c4.995,9.003 4.722,20.004 -0.714,28.748c-5.435,8.744 -15.18,13.857 -25.464,13.362c-19.054,-0.917 -24.955,5.593 -58.316,10.803c-2.983,0.466 -5.926,1.006 -8.643,1.55c6.784,47.755 12.421,75.86 12.954,93.922c0.511,17.35 -3.021,29.054 -9.37,38.549c-5.975,8.935 -15.069,16.447 -29.857,23.403c-10.445,4.913 -25.985,11.604 -45.181,9.712c-18.122,-1.786 -41.043,-10.764 -65.468,-41.921c-30.795,-39.283 -10.868,-80.541 13.265,-100.425c13.218,-10.891 27.976,-14.621 37.993,-13.728Z" style="fill:#6948cd;"/><path d="M92.475,32.669c14.387,-7.291 15.475,-4.026 46.639,-4.212c12.691,-0.076 78.046,47.762 86.347,62.724c-20.888,-1.006 -27.488,5.399 -64.059,11.11c-36.145,5.645 -35.626,9.663 -34.761,16.147c15.186,113.717 27.662,126.931 -7.854,143.635c-14.082,6.623 -41.359,20.457 -76.24,-24.038c-26.785,-34.167 11.293,-70.533 26.412,-68.382c8.953,1.274 7.844,-4.333 33.454,6.682c1.706,0.734 -1.031,-1.032 18.222,8.25c-1.353,-3.427 -4.327,-31.32 -8.696,-45.291c-1.48,-4.732 -24.618,-99.772 -19.465,-106.626Z" style="fill:#ebebeb;"/></g></svg>