<?xml version="1.0" encoding="UTF-8" standalone="no"?><!DOCTYPE svg PUBLIC "-//W3C//DTD SVG 1.1//EN" "http://www.w3.org/Graphics/SVG/1.1/DTD/svg11.dtd"><svg width="100%" height="100%" viewBox="0 0 255 299" version="1.1" xmlns="http://www.w3.org/2000/svg" xmlns:xlink="http://www.w3.org/1999/xlink" xml:space="preserve" xmlns:serif="http://www.serif.com/" style="fill-rule:evenodd;clip-rule:evenodd;stroke-linecap:round;stroke-linejoin:round;stroke-miterlimit:1.5;"><g><g><circle cx="128.116" cy="134.177" r="108.63" style="fill:#f20d5e;"/><path d="M187.801,297.557l-118.771,1.141c-9.056,0.087 -17.7,-3.778 -23.673,-10.584c-5.974,-6.807 -8.684,-15.879 -7.422,-24.847c0,0 4.724,-32.999 13.641,-57.608c5.786,-15.969 14.239,-28.698 22.357,-35.053c13.864,-10.852 37.554,-19.053 59.472,-19.105c17.88,-0.042 34.288,5.281 45.67,14.939c7.455,6.326 15.685,18.98 21.889,34.608c10.063,25.351 17.015,59.205 17.015,59.205c1.852,9.097 -0.456,18.547 -6.295,25.765c-5.839,7.218 -14.597,11.45 -23.881,11.539Z" style="fill:#f20d5e;"/><path d="M148.713,87.838c19.994,0 37.944,16.46 37.944,38.719c0,22.259 -17.95,38.719 -37.944,38.719c-19.994,0 -37.944,-16.46 -37.944,-38.719c0,-22.259 17.95,-38.719 37.944,-38.719Zm0,62.201c12.451,0 24.256,-9.62 24.256,-23.481c0,-13.861 -11.805,-23.481 -24.256,-23.481c-12.451,0 -24.256,9.62 -24.256,23.481c0,13.861 11.805,23.481 24.256,23.481Zm0,-31.1c3.777,0 6.844,3.414 6.844,7.619c0,4.205 -3.067,7.619 -6.844,7.619c-3.777,0 -6.844,-3.414 -6.844,-7.619c0,-4.205 3.067,-7.619 6.844,-7.619Z" style="fill:#f20d5e;"/><path d="M106.477,87.838c19.994,0 37.944,16.46 37.944,38.719c0,22.259 -17.95,38.719 -37.944,38.719c-19.994,0 -37.944,-16.46 -37.944,-38.719c0,-22.259 17.95,-38.719 37.944,-38.719Zm0,62.201c12.451,0 24.256,-9.62 24.256,-23.481c0,-13.861 -11.805,-23.481 -24.256,-23.481c-12.451,0 -24.256,9.62 -24.256,23.481c0,13.861 11.805,23.481 24.256,23.481Zm0,-31.1c3.777,0 6.844,3.414 6.844,7.619c0,4.205 -3.067,7.619 -6.844,7.619c-3.777,0 -6.844,-3.414 -6.844,-7.619c0,-4.205 3.067,-7.619 6.844,-7.619Z" style="fill:#f20d5e;"/><path d="M127.64,77.156c-26.132,-0.4 -36.052,18.823 -38.604,23.421c-3.067,5.526 -12.268,21.443 -17.745,26.329c-4.394,3.92 -8.338,6.094 -12.101,7.569c-5.916,2.318 -11.883,3.247 -23.807,1.584c-9.112,-1.271 -16.145,-5.433 -21.401,-11.296c-5.706,-6.364 -10.479,-15.846 -8.698,-29.638c1.106,-8.568 6.761,-23.907 23.432,-43.852c23.066,-27.594 56.221,-51.381 99.139,-51.273c51.056,0.128 87.214,37.917 97.092,52.427c5.15,7.565 15.127,22.41 18.907,30.949c3.295,7.441 4.004,13.838 3.872,17.869l-1.413,8.571l-3.243,7.281l-4.814,6.143l-6.414,4.949c-0.875,0.513 -13.949,6.005 -26.369,4.817c-13.592,-1.299 -24.691,-8.763 -30.274,-19.554c-6.14,-11.866 -10.067,-15.365 -15.148,-20.763c-4.316,-4.585 -12.834,-15.234 -32.412,-15.533Z" style="fill:#f20d5e;"/><path d="M157.42,169.516l-0.003,0.015c-0.64,3.709 -1.489,7.419 -2.533,9.378l-4.817,6.753l-6.501,5.328l-6.595,3.077l-7.718,1.522l-7.544,-0.39l-6.281,-1.78c-1.119,-0.447 -2.211,-0.959 -3.271,-1.532l-27.712,-15.001l3.271,1.532l-9.997,-6.304l-7.992,-11.359c-3.389,-7.967 -3.384,-18.086 -0.3,-25.808c0.868,-2.173 1.978,-4.241 3.31,-6.165l2.214,-3.199l-3.31,6.165l6.508,-10.149c2.849,-3 6.932,-6.083 12.252,-8.119c8.219,-3.145 21.044,-2.17 26.306,-0.069c1.702,0.679 3.34,1.508 4.895,2.476l22.602,14.062l-4.895,-2.476l9.721,6.113l7.97,11.458c2.464,6.019 2.294,17.512 0.418,24.472Zm-57.54,-19.642c-0.794,1.62 -1.608,4.747 -2.211,7.403c-0,4.153 0.626,8.538 1.769,11.331c0.598,1.461 1.279,2.837 2.037,4.129c3.764,0.29 7.945,0.063 11.155,-1.165c5.132,-1.964 8.966,-5.018 11.775,-8.364l0.024,-0.045l-24.549,-13.289Zm27.906,6.484c1.975,-6.209 1.782,-13.837 -0.819,-19.952c-0.458,-1.078 -0.973,-2.114 -1.539,-3.106c-5.202,0.256 -10.024,1.98 -14.512,4.747c-1.863,1.149 -3.759,2.575 -5.557,4.359l22.418,13.948c0.003,0.001 0.006,0.002 0.008,0.003Zm-17.768,25.576c1.908,1.31 3.989,2.41 6.226,3.304c-1.702,-0.679 -3.34,-1.508 -4.895,-2.476l-1.33,-0.828Z" style="fill:#f20d5e;"/><path d="M95.758,158.541c-0.073,-5.164 0.556,-10.386 2.056,-13.864l6.137,-9.333l11.371,-7.721l-4.736,2.373l23.498,-14.398c1.508,-0.924 3.093,-1.718 4.736,-2.373c5.216,-2.078 17.835,-3.079 25.9,-0.15c5.451,1.98 9.621,5.057 12.515,8.034l6.771,10.432l-3.446,-6.37l2.241,3.189c1.393,1.982 2.549,4.12 3.446,6.37c3.123,7.838 3.085,18.163 -0.569,26.328l-8.072,11.099l-9.749,6.058l3.162,-1.47l-28.781,15.402c-1.026,0.549 -2.081,1.04 -3.162,1.47l-13.402,2.189l-7.628,-1.386l-6.656,-2.972l-6.695,-5.332l-5.016,-6.925c-1.374,-2.561 -2.81,-6.151 -3.515,-10.478c-0.654,-4.014 -0.418,-10.242 -0.418,-10.242l0.011,0.07Zm48.558,23.736l-1.233,0.755c-1.508,0.924 -3.093,1.718 -4.736,2.373c2.142,-0.854 4.136,-1.896 5.969,-3.128Zm-13.128,-19.49l0.221,0.409c2.875,3.367 6.804,6.428 12.078,8.343c2.819,1.024 6.422,1.267 9.793,1.074c0.601,-1.048 1.151,-2.149 1.649,-3.304c1.229,-2.849 1.916,-7.266 1.961,-11.469c-0.587,-2.687 -1.386,-5.871 -2.193,-7.635l-23.51,12.581Zm18.118,-20.042c-1.966,-1.981 -4.065,-3.536 -6.139,-4.769c-4.095,-2.433 -8.491,-4.031 -13.228,-4.417c-0.37,0.678 -0.715,1.375 -1.035,2.09c-2.789,6.233 -3.036,13.964 -1.088,20.263l21.489,-13.168Z" style="fill:#f20d5e;"/><path d="M85.683,107.234l0,65.737c0,20.405 -16.566,36.971 -36.971,36.971l-11.741,0c-20.405,0 -36.971,-16.566 -36.971,-36.971l0,-65.737c0,-20.405 16.566,-36.971 36.971,-36.971l11.741,0c20.405,0 36.971,16.566 36.971,36.971Z" style="fill:#f20d5e;"/><path d="M168.595,172.966l0,-66.623c0,-20.408 16.568,-36.976 36.976,-36.976l11.751,0c20.408,0 36.976,16.568 36.976,36.976l0,66.623c0,20.408 -16.568,36.976 -36.976,36.976l-11.751,0c-20.408,0 -36.976,-16.568 -36.976,-36.976Z" style="fill:#f20d5e;"/></g><g><circle cx="128.116" cy="134.177" r="77.529" style="fill:#ebebeb;"/><path d="M187.502,266.458l-118.771,1.141c0,0 8.446,-60.039 24.37,-72.503c15.634,-12.238 50.116,-18.294 65.849,-4.943c15.734,13.351 28.552,76.306 28.552,76.306Z" style="fill:#ebebeb;"/><ellipse cx="148.713" cy="126.558" rx="6.844" ry="7.619" style="fill:#f20d5e;"/><ellipse cx="106.477" cy="126.558" rx="6.844" ry="7.619" style="fill:#f20d5e;"/><path d="M128.116,46.06c-44.628,-0.683 -61.914,31.572 -66.273,39.424c-2.069,3.727 -7.563,14.92 -11.257,18.215c-3.377,3.013 -5.075,2.371 -10.907,1.557c-6.669,-0.931 -5.197,-12.391 12.897,-34.037c17.614,-21.072 42.426,-40.201 75.199,-40.119c37.632,0.094 64.181,28.134 71.462,38.829c6.046,8.881 20.34,29.398 16.87,31.434c-0.419,0.246 -10.842,2.522 -13.286,-2.202c-8.196,-15.84 -13.341,-20.581 -20.124,-27.787c-7.225,-7.676 -21.809,-24.813 -54.582,-25.314Z" style="fill:#ebebeb;"/><path d="M61.751,113.708l0,57.17c0,1.978 -1.606,3.584 -3.584,3.584l-7.168,0c-1.978,0 -3.584,-1.606 -3.584,-3.584l0,-57.17c0,-1.978 1.606,-3.584 3.584,-3.584l7.168,0c1.978,0 3.584,1.606 3.584,3.584Z" style="fill:#ebebeb;stroke:#f20d5e;stroke-width:20.41px;"/><path d="M127.777,160.307c0,0 0.234,4.646 -0.813,4.228l-27.712,-15.001c-1.048,-0.418 -1.359,-2.007 -0.941,-3.055l2.214,-3.199c0.418,-1.048 3.602,-1.406 4.65,-0.987l22.602,14.062c1.048,0.418 0.418,2.905 0,3.952Z" style="fill:#f20d5e;"/><path d="M126.782,160.487c0,0 -0.303,4.672 0.783,4.239l28.781,-15.402c1.086,-0.433 1.429,-2.034 1.011,-3.082l-2.241,-3.189c-0.418,-1.048 -3.697,-1.37 -4.783,-0.938l-23.498,14.398c-1.086,0.433 -0.47,2.924 -0.052,3.972Z" style="fill:#f20d5e;"/><path d="M54.583,107.234l0,65.737c0,3.24 -2.631,5.871 -5.871,5.871l-11.741,0c-3.24,0 -5.871,-2.631 -5.871,-5.871l0,-65.737c0,-3.24 2.631,-5.871 5.871,-5.871l11.741,0c3.24,0 5.871,2.631 5.871,5.871Z" style="fill:#ebebeb;"/><path d="M192.425,165.478l0,-57.981c0,-2.006 1.629,-3.635 3.635,-3.635l7.27,0c2.006,0 3.635,1.629 3.635,3.635l0,57.981c0,2.006 -1.629,3.635 -3.635,3.635l-7.27,0c-2.006,0 -3.635,-1.629 -3.635,-3.635Z" style="fill:#ebebeb;stroke:#f20d5e;stroke-width:20.41px;"/><path d="M199.695,172.966l0,-66.623c0,-3.243 2.633,-5.876 5.876,-5.876l11.751,0c3.243,0 5.876,2.633 5.876,5.876l0,66.623c0,3.243 -2.633,5.876 -5.876,5.876l-11.751,0c-3.243,0 -5.876,-2.633 -5.876,-5.876Z" style="fill:#ebebeb;"/></g></g></svg>