<?xml version="1.0" encoding="UTF-8" standalone="no"?><!DOCTYPE svg PUBLIC "-//W3C//DTD SVG 1.1//EN" "http://www.w3.org/Graphics/SVG/1.1/DTD/svg11.dtd"><svg width="100%" height="100%" viewBox="0 0 376 325" version="1.1" xmlns="http://www.w3.org/2000/svg" xmlns:xlink="http://www.w3.org/1999/xlink" xml:space="preserve" xmlns:serif="http://www.serif.com/" style="fill-rule:evenodd;clip-rule:evenodd;stroke-linecap:round;stroke-linejoin:round;stroke-miterlimit:1.5;"><g><g><g><path d="M255.479,12.535c66.795,0 120.249,52.341 120.249,115.814c0,63.472 -53.454,115.814 -120.249,115.814c-66.795,0 -120.249,-52.341 -120.249,-115.814c0,-63.472 53.454,-115.814 120.249,-115.814Z" style="fill:#84d2f5;"/><path d="M255.479,28.747c57.622,0 104.279,46.533 104.279,103.694c0,57.161 -46.657,103.694 -104.279,103.694c-57.622,0 -104.279,-46.533 -104.279,-103.694c0,-57.161 46.657,-103.694 104.279,-103.694Z" style="fill:#84d2f5;stroke:#fff;stroke-width:2.74px;"/><path d="M251.026,36.198c53.477,0 96.769,43.194 96.769,96.244c0,53.049 -43.292,96.244 -96.769,96.244c-53.477,0 -96.769,-43.194 -96.769,-96.244c0,-53.049 43.292,-96.244 96.769,-96.244Z" style="fill:#84d2f5;stroke:#fff;stroke-width:2.74px;"/><path d="M259.186,20.309c60.913,0 110.064,48.801 110.064,108.533c0,59.732 -49.152,108.533 -110.064,108.533c-60.913,0 -110.064,-48.801 -110.064,-108.533c0,-59.732 49.152,-108.533 110.064,-108.533Z" style="fill:#84d2f5;stroke:#fff;stroke-width:2.74px;"/><path d="M287.855,47.137l0,50.626l53.767,0c17.164,-0 31.079,13.914 31.079,31.079c0,61.96 -51.583,112.784 -115.925,112.784c-64.299,0 -115.925,-50.865 -115.925,-112.784c0,-61.96 51.583,-112.784 115.925,-112.784c17.164,0 31.079,13.914 31.079,31.079Z" style="fill:#84d2f5;"/><path d="M255.479,74.407c30.862,0 55.139,24.616 55.139,53.942c0,29.326 -24.278,53.942 -55.139,53.942c-30.862,0 -55.139,-24.616 -55.139,-53.942c0,-29.326 24.278,-53.942 55.139,-53.942Z" style="fill:#84d2f5;"/><path d="M255.479,93.178c20.319,0 35.533,16.502 35.533,35.171c0,18.669 -15.214,35.171 -35.533,35.171c-20.319,0 -35.533,-16.502 -35.533,-35.171c0,-18.669 15.214,-35.171 35.533,-35.171Zm0,62.158c15.407,0 26.625,-12.831 26.625,-26.987c0,-14.156 -11.218,-26.987 -26.625,-26.987c-15.407,0 -26.625,12.831 -26.625,26.987c0,14.156 11.218,26.987 26.625,26.987Zm0,-31.079c2.458,0 4.454,1.834 4.454,4.092c0,2.259 -1.996,4.092 -4.454,4.092c-2.458,0 -4.454,-1.834 -4.454,-4.092c0,-2.259 1.996,-4.092 4.454,-4.092Z" style="fill:#84d2f5;"/></g><path d="M300.81,171.387l0,81.611c0,39.674 -32.21,71.884 -71.884,71.884l-145.267,0c-39.674,0 -71.884,-32.21 -71.884,-71.884l-0,-81.611c0,-39.674 32.21,-71.884 71.884,-71.884l145.267,0c39.674,0 71.884,32.21 71.884,71.884Z" style="fill:#84d2f5;"/><path d="M209.887,134.835l0,105.272c0,35.912 -29.156,65.067 -65.067,65.067l-67.977,0c-35.912,0 -65.067,-29.156 -65.067,-65.067l-0,-105.272c0,-35.912 29.156,-65.067 65.067,-65.067l67.977,0c35.912,0 65.067,29.156 65.067,65.067Z" style="fill:#84d2f5;"/></g><g><g><path d="M247.685,0c66.795,0 120.249,52.341 120.249,115.814c0,63.472 -53.454,115.814 -120.249,115.814c-66.795,0 -120.249,-52.341 -120.249,-115.814c0,-63.472 53.454,-115.814 120.249,-115.814Z" style="fill:#fff;"/><path d="M247.685,16.212c57.622,0 104.279,46.533 104.279,103.694c0,57.161 -46.657,103.694 -104.279,103.694c-57.622,0 -104.279,-46.533 -104.279,-103.694c0,-57.161 46.657,-103.694 104.279,-103.694Z" style="fill:#fff;stroke:#fff;stroke-width:2.74px;"/><path d="M243.231,23.662c53.477,0 96.769,43.194 96.769,96.244c0,53.049 -43.292,96.244 -96.769,96.244c-53.477,0 -96.769,-43.194 -96.769,-96.244c0,-53.049 43.292,-96.244 96.769,-96.244Z" style="fill:#fff;stroke:#fff;stroke-width:2.74px;"/><path d="M251.391,7.773c60.913,0 110.064,48.801 110.064,108.533c0,59.732 -49.152,108.533 -110.064,108.533c-60.913,0 -110.064,-48.801 -110.064,-108.533c0,-59.732 49.152,-108.533 110.064,-108.533Z" style="fill:#fff;stroke:#fff;stroke-width:2.74px;"/><path d="M280.06,34.602l0,50.626l53.767,0c17.164,0 31.079,13.914 31.079,31.079c0,61.96 -51.583,112.784 -115.925,112.784c-64.299,0 -115.925,-50.865 -115.925,-112.784c0,-61.96 51.583,-112.784 115.925,-112.784c17.164,0 31.079,13.914 31.079,31.079Z" style="fill:#fff;"/><path d="M247.685,61.871c30.862,0 55.139,24.616 55.139,53.942c0,29.326 -24.278,53.942 -55.139,53.942c-30.862,0 -55.139,-24.616 -55.139,-53.942c0,-29.326 24.278,-53.942 55.139,-53.942Z" style="fill:#fff;"/><path d="M247.685,80.643c20.319,0 35.533,16.502 35.533,35.171c0,18.669 -15.214,35.171 -35.533,35.171c-20.319,0 -35.533,-16.502 -35.533,-35.171c0,-18.669 15.214,-35.171 35.533,-35.171Zm0,62.158c15.407,0 26.625,-12.831 26.625,-26.987c0,-14.156 -11.218,-26.987 -26.625,-26.987c-15.407,0 -26.625,12.831 -26.625,26.987c0,14.156 11.218,26.987 26.625,26.987Zm0,-31.079c2.458,0 4.454,1.834 4.454,4.092c0,2.259 -1.996,4.092 -4.454,4.092c-2.458,0 -4.454,-1.834 -4.454,-4.092c0,-2.259 1.996,-4.092 4.454,-4.092Z" style="fill:#fff;"/></g><path d="M293.016,158.852l0,81.611c0,39.674 -32.21,71.884 -71.884,71.884l-145.267,0c-39.674,0 -71.884,-32.21 -71.884,-71.884l-0,-81.611c0,-39.674 32.21,-71.884 71.884,-71.884l145.267,0c39.674,0 71.884,32.21 71.884,71.884Z" style="fill:#fff;"/><path d="M202.092,122.3l0,105.272c0,35.912 -29.156,65.067 -65.067,65.067l-67.977,0c-35.912,0 -65.067,-29.156 -65.067,-65.067l0,-105.272c0,-35.912 29.156,-65.067 65.067,-65.067l67.977,0c35.912,0 65.067,29.156 65.067,65.067Z" style="fill:#fff;"/></g><g><g><ellipse cx="247.685" cy="115.814" rx="89.171" ry="84.735" style="fill:#3e404c;"/><ellipse cx="247.685" cy="119.906" rx="73.201" ry="72.615" style="fill:none;stroke:#fff;stroke-width:2.74px;"/><ellipse cx="243.231" cy="119.906" rx="65.69" ry="65.165" style="fill:none;stroke:#fff;stroke-width:2.74px;"/><ellipse cx="251.391" cy="116.306" rx="78.986" ry="77.454" style="fill:none;stroke:#fff;stroke-width:2.74px;"/><path d="M248.981,34.602l0,81.705l84.846,0c0,45.124 -37.987,81.705 -84.846,81.705c-46.828,0 -84.846,-36.611 -84.846,-81.705c0,-45.124 37.987,-81.705 84.846,-81.705Z" style="fill:#3e404c;"/><ellipse cx="247.685" cy="115.814" rx="24.06" ry="22.863" style="fill:#84d2f5;"/><ellipse cx="247.685" cy="115.814" rx="4.454" ry="4.092"/></g><path d="M261.937,158.852l0,81.611c0,22.521 -18.284,40.805 -40.805,40.805l-145.267,0c-22.521,0 -40.805,-18.284 -40.805,-40.805l0,-81.611c0,-22.521 18.284,-40.805 40.805,-40.805l145.267,0c22.521,0 40.805,18.284 40.805,40.805Z" style="fill:#84d2f5;"/><path d="M171.013,122.3l0,105.272c0,18.759 -15.23,33.989 -33.989,33.989l-67.977,0c-18.759,0 -33.989,-15.23 -33.989,-33.989l0,-105.272c0,-18.759 15.23,-33.989 33.989,-33.989l67.977,0c18.759,0 33.989,15.23 33.989,33.989Z" style="fill:#84d2f5;"/></g><g><path d="M155.355,162.151l0,76.795c0,3.784 -3.072,6.857 -6.857,6.857c-3.784,0 -6.857,-3.072 -6.857,-6.857l0,-76.795c0,-3.784 3.072,-6.857 6.857,-6.857c3.784,0 6.857,3.072 6.857,6.857Z" style="fill:#fff;"/><path d="M110.101,193.692l76.795,-0c3.784,0 6.857,3.072 6.857,6.857c0,3.784 -3.072,6.857 -6.857,6.857l-76.795,0c-3.784,0 -6.857,-3.072 -6.857,-6.857c0,-3.784 3.072,-6.857 6.857,-6.857Z" style="fill:#fff;"/></g></g><g><path d="M-153.987,491.946c1.208,-0.282 4.971,-0.929 11.696,-0.125c-4.459,-17.923 -16.032,-67.31 -18.968,-91.974c-1.186,-9.965 -0.783,-17.55 0.063,-21.43c1.203,-5.519 3.442,-9.467 5.53,-12.243c2.609,-3.471 5.981,-6.297 9.854,-8.26c18.354,-9.301 19.54,-7.038 59.296,-7.276c6.179,-0.037 21.079,4.546 37.834,14.966c18.239,11.342 41.589,28.855 56.124,42.214c8.731,8.025 14.73,15.39 17.373,20.153c4.995,9.003 4.722,20.004 -0.714,28.748c-5.435,8.744 -15.18,13.857 -25.464,13.362c-19.054,-0.917 -24.955,5.593 -58.316,10.803c-2.983,0.466 -5.926,1.006 -8.643,1.55c6.784,47.755 12.421,75.86 12.954,93.922c0.511,17.35 -3.021,29.054 -9.37,38.549c-5.975,8.935 -15.069,16.447 -29.857,23.403c-10.445,4.913 -25.985,11.604 -45.181,9.712c-18.122,-1.786 -41.043,-10.764 -65.468,-41.921c-30.795,-39.283 -10.868,-80.541 13.265,-100.425c13.218,-10.891 27.976,-14.621 37.993,-13.728Z" style="fill:#6948cd;"/></g></svg>